<?xml version="1.0" encoding="UTF-8" standalone="no"?>
<!-- Created with Inkscape (http://www.inkscape.org/) -->

<svg
   width="22.084209mm"
   height="18.88586mm"
   viewBox="0 0 22.084209 18.885861"
   version="1.1"
   id="svg5"
   sodipodi:docname="rysunek.svg"
   inkscape:version="1.1 (c68e22c387, 2021-05-23)"
   xmlns:inkscape="http://www.inkscape.org/namespaces/inkscape"
   xmlns:sodipodi="http://sodipodi.sourceforge.net/DTD/sodipodi-0.dtd"
   xmlns="http://www.w3.org/2000/svg"
   xmlns:svg="http://www.w3.org/2000/svg">
  <sodipodi:namedview
     id="namedview7"
     pagecolor="#ffffff"
     bordercolor="#666666"
     borderopacity="1.0"
     inkscape:pageshadow="2"
     inkscape:pageopacity="0.0"
     inkscape:pagecheckerboard="0"
     inkscape:document-units="mm"
     showgrid="false"
     inkscape:zoom="5.6568543"
     inkscape:cx="61.695066"
     inkscape:cy="35.355339"
     inkscape:window-width="1920"
     inkscape:window-height="1018"
     inkscape:window-x="-8"
     inkscape:window-y="-8"
     inkscape:window-maximized="1"
     inkscape:current-layer="layer1"
     fit-margin-top="0"
     fit-margin-left="0"
     fit-margin-right="0"
     fit-margin-bottom="0"
     width="22.08421mm"
     height="18.88586mm" />
  <defs
     id="defs2">
    <inkscape:path-effect
       effect="spiro"
       id="path-effect5284"
       is_visible="true"
       lpeversion="1" />
    <inkscape:path-effect
       effect="spiro"
       id="path-effect4714"
       is_visible="true"
       lpeversion="1" />
    <clipPath
       clipPathUnits="userSpaceOnUse"
       id="clipPath12288">
      <path
         id="path12290"
         style="fill:#ff0000;fill-opacity:1;fill-rule:nonzero;stroke:none"
         d="m 281.01003,347.59838 -0.3125,0.002 v 27.87305 h 22.23242 c -0.0937,-0.0841 -0.18902,-0.16631 -0.28125,-0.25195 -0.0284,-0.0264 -0.0477,-0.0616 -0.0723,-0.0918 -0.0458,-0.0565 -0.0903,-0.11196 -0.13672,-0.16797 -0.10771,-0.13001 -0.22292,-0.25359 -0.32421,-0.38867 -0.40727,-0.54311 -0.39927,-0.55867 -0.69532,-1.07227 -0.13029,-0.25772 -0.26703,-0.51246 -0.39062,-0.77343 -0.0497,-0.10492 -0.0879,-0.21368 -0.12891,-0.32227 -0.13338,-0.35312 -0.2545,-0.71055 -0.36328,-1.07227 -0.004,-0.0112 -0.009,-0.022 -0.0137,-0.0332 -0.0387,-0.10242 -0.0596,-0.21062 -0.0879,-0.31641 v -0.002 c -0.0453,-0.16591 -0.0883,-0.33242 -0.12695,-0.5 -7.2e-4,-0.004 -8.8e-4,-0.008 -0.002,-0.0117 -0.008,-0.0371 -0.0204,-0.074 -0.0351,-0.13867 -0.21586,-0.90149 -0.47486,-1.80668 -0.44727,-2.74414 0.0786,-2.66562 1.25042,-4.17892 2.55859,-4.54687 0.31825,-0.15267 0.65462,-0.2347 0.99414,-0.24219 -0.008,-0.0157 -0.0149,-0.0317 -0.0234,-0.0469 -0.0471,-0.0839 -0.13677,-0.2271 -0.22657,-0.36914 -0.0183,-0.009 -0.0383,-0.0183 -0.0566,-0.0273 -0.41515,-0.23138 -0.5541,-0.28834 -0.44336,-0.69336 -0.29027,-0.38608 -0.59501,-0.7613 -0.89843,-1.13672 -0.15079,-0.18542 -0.301,-0.36793 -0.44727,-0.55664 -0.0226,-0.0291 -0.0916,-0.0653 -0.0644,-0.0898 0.0908,-0.0815 0.1835,-0.16188 0.27539,-0.24219 -0.0443,-0.11228 -0.0719,-0.2199 -0.0859,-0.32422 -0.0787,0.0572 -0.15686,0.11598 -0.23242,0.17773 -0.003,0.002 -0.009,0.006 -0.0117,0.01 -0.0135,-0.10875 -0.0197,-0.21735 -0.0312,-0.32617 -0.0656,-0.61307 0.11258,-0.66523 0.38867,-0.49024 0.1439,-0.24131 0.4035,-0.39265 0.72266,-0.40234 -0.0157,-0.26549 0.0757,-0.46377 0.16797,-0.75586 0.0773,-0.15991 0.15018,-0.3221 0.22656,-0.48242 0.008,-0.0177 0.0187,-0.035 0.0273,-0.0527 0.008,-0.0527 0.0178,-0.10432 0.0274,-0.15625 -0.10574,-0.12275 -0.2111,-0.24713 -0.31055,-0.375 -0.0677,-0.0871 -0.13032,-0.17718 -0.1875,-0.27148 -0.22073,-0.36415 -0.32627,-0.57917 -0.51172,-0.9375 -0.38871,-1.03248 -0.13538,-0.31203 -0.38476,-1.11914 -0.0509,-0.16476 -0.10454,-0.32831 -0.15821,-0.49219 -0.0347,-0.10602 -0.0641,-0.21556 -0.10742,-0.31836 -0.0588,-0.13945 -0.14127,-0.30214 -0.22461,-0.46094 -0.10035,-0.0492 -0.20146,-0.0965 -0.30469,-0.13867 -0.16241,-0.0663 -0.293,-0.1161 -0.41211,-0.16015 -0.086,0.011 -0.17186,0.0212 -0.25781,0.0176 -0.0943,-0.004 -0.18981,-0.0181 -0.2832,-0.0312 -0.005,-6.8e-4 -0.009,5e-4 -0.0137,-0.002 -0.36221,0.18827 -0.91439,0.16943 -1.55469,-0.22461 -0.24991,-0.15379 -0.14415,-0.086 -0.51953,-0.34179 -0.0949,-0.0646 -0.17986,-0.14173 -0.28125,-0.19532 -0.1749,-0.0923 -0.36121,-0.16226 -0.54297,-0.24023 -0.16988,-0.0729 -0.33615,-0.16137 -0.51367,-0.21289 -0.31672,-0.0919 -0.64306,-0.14469 -0.96485,-0.2168 -0.12454,-0.0222 -0.12858,-0.0225 -0.2207,-0.0391 0.39369,0.76762 -0.32691,1.63949 -1.73242,1.20703 -0.2361,-0.0725 -0.0977,-0.0344 -0.45313,-0.0996 -0.0965,-0.0177 -0.1921,-0.0389 -0.28906,-0.0527 0.64872,0.95511 -0.077,1.88581 -1.1914,1.47851 0.15517,0.10862 0.29804,0.23269 0.44726,0.34961 0.62224,0.4875 0.44297,0.34211 0.86914,0.69141 0.099,0.084 0.19843,0.16736 0.29688,0.25195 1.26802,-0.0118 1.6962,0.91613 1.15625,1.55273 0.20255,0.69075 -0.47207,1.40446 -1.76172,1.08204 -0.0422,-0.0106 -0.0844,-0.0226 -0.12696,-0.0312 -0.0832,-0.0166 -0.16914,-0.0186 -0.25195,-0.0371 -0.124,-0.0277 -0.24668,-0.0582 -0.36914,-0.0918 -0.12879,-0.0356 -0.25384,-0.0803 -0.37695,-0.12891 -0.0316,0.0587 -0.0746,0.11225 -0.1211,0.16407 0.51552,0.65513 0.01,1.63503 -1.43164,1.54492 -0.0562,-0.003 -0.11288,0.002 -0.16796,-0.01 -0.16961,-0.0352 -0.33902,-0.0761 -0.50391,-0.1289 -0.2422,-0.0775 -0.45274,-0.2234 -0.66016,-0.36524 -0.0752,-0.0514 -0.14737,-0.10701 -0.21679,-0.16601 -0.10133,-0.0861 -0.19655,-0.17815 -0.29493,-0.26758 -0.0478,-0.0476 -0.0602,-0.0643 -0.0898,-0.0937 0.0295,0.0572 0.0587,0.11444 0.0879,0.17187 0.0916,0.18268 0.19581,0.36486 0.32813,0.52149 0.099,0.093 0.11883,0.22634 0.15039,0.35156 0.0392,-0.0157 0.0672,0.009 0.0762,0.11328 0.001,0.0181 0.009,0.0365 0.008,0.0547 -7.6e-4,0.0173 -0.011,0.13823 -0.0371,0.14844 -0.29104,0.11644 -0.28793,0.14006 -0.36719,0.0371 -0.0103,10e-4 -0.0108,0.005 -0.0234,0.006 -0.0682,0.002 -0.14193,0.0296 -0.20508,0.006 -0.15708,-0.0643 -0.15565,-0.11985 -0.18945,-0.22851 -0.0307,-0.098 -0.0226,-0.0702 -0.0547,-0.1543 -0.0106,-0.0474 -0.0208,-0.0951 -0.0312,-0.14258 -1.6e-4,-0.009 1.6e-4,-0.0183 0,-0.0273 0.001,-0.002 0.004,-0.004 0.004,-0.006 -0.0148,-0.0824 -0.025,-0.0898 -0.0605,-0.17578 -0.0337,-0.0707 -0.066,-0.14316 -0.10157,-0.21289 -0.0424,-0.083 -0.0523,-0.0979 -0.0742,-0.13672 0.0165,0.0875 0.0328,0.17447 0.0508,0.26172 0.0845,0.0346 0.1558,0.13879 0.1582,0.3125 4.7e-4,0.0343 -4.8e-4,0.0672 0,0.10156 10e-4,0.0746 0.006,0.15042 -0.004,0.22461 -0.002,0.0149 0.007,0.0416 -0.008,0.043 -0.14623,0.0135 -0.29484,-0.006 -0.4414,-0.002 -0.0227,-0.0958 -0.0481,-0.19107 -0.0703,-0.28711 -0.0155,-0.0666 -0.0266,-0.13427 -0.041,-0.20118 -0.0454,0.004 -0.13723,0.0199 -0.22657,0.0371 -9.1e-4,0.002 -2e-4,0.004 -0.002,0.006 2.2e-4,0.006 -2.3e-4,0.0131 0,0.0195 5.6e-4,0.0439 -9.1e-4,0.0871 0.002,0.13086 7.9e-4,0.0162 0.004,0.0328 0.006,0.0488 l 0.002,0.002 c 0.004,0.005 8.4e-4,0.026 0,0.0195 -9.4e-4,-0.007 -3.5e-4,-0.0145 -0.002,-0.0215 -0.0235,-0.0264 -0.0447,-0.0584 -0.0684,-0.0859 -0.0771,0.1411 -0.14427,0.26694 0.043,0.17774 0.0263,-0.0125 0.0464,-0.0162 0.0605,-0.0274 -0.0207,0.0566 -0.0268,0.12397 -0.0723,0.16211 -0.17254,0.14476 -0.26889,0.0384 -0.38281,-0.0918 -0.0141,-0.0162 -0.0132,-0.0406 -0.0156,-0.0625 -7.9e-4,-0.002 -4e-4,-0.005 -0.002,-0.008 -0.002,-0.006 -0.008,-0.0126 -0.01,-0.0195 -0.0909,0.006 -0.18264,0.01 -0.27344,0.008 -0.0142,-7.2e-4 -0.01,-0.0274 -0.0137,-0.041 -0.008,-0.0269 -0.0159,-0.0529 -0.0234,-0.0801 -0.0284,-0.10151 -0.0488,-0.20655 -0.0508,-0.3125 -0.24144,-0.0278 -0.2443,-0.0641 -0.24414,-0.20117 -0.18864,-0.10839 -0.22344,-0.14948 -0.21875,-0.20312 -0.0103,-0.005 -0.0215,-0.011 -0.0332,-0.0176 0.0175,-0.059 0.0379,-0.12217 0.0664,-0.16992 -0.0493,-0.03 -0.0974,-0.0629 -0.14844,-0.0899 -0.0294,0.0459 -0.0509,0.0517 -0.0684,0.0371 0.007,0.0455 0.0136,0.092 0.0195,0.13672 0.0445,0.0308 0.0884,0.0639 0.12695,0.0859 -0.0332,0.11168 -0.0587,0.20918 -0.13867,0.16797 -0.0472,-0.0243 -0.0886,-0.0574 -0.13086,-0.0899 -7.8e-4,10e-4 -0.003,0.003 -0.004,0.004 -0.0135,0.0194 -0.0243,0.002 -0.0332,-0.0312 -0.005,-0.004 -0.0107,-0.006 -0.0156,-0.01 -0.005,-0.0196 -0.008,-0.0392 -0.0137,-0.0586 -0.006,-0.005 -0.0141,-0.0114 -0.0195,-0.0176 -0.0688,-0.0787 -0.10706,-0.20706 -0.11523,-0.31445 -0.004,-0.0225 -0.005,-0.0472 -0.004,-0.0664 -0.008,-0.14177 -0.0435,-0.33597 0.0312,-0.45312 0.0231,-0.0358 0.0142,-0.015 0.0195,-0.0742 0.0101,-0.11185 -0.012,-0.23762 0.0684,-0.33203 0.003,-0.005 0.009,-0.0106 0.0117,-0.0156 0.002,-0.007 0.008,-0.0143 0.01,-0.0215 -0.0149,-0.003 -0.0242,-0.003 -0.0605,-0.0117 -0.0972,-0.0229 -0.19397,-0.044 -0.28906,-0.0742 -0.14359,-0.0458 -0.28577,-0.0988 -0.42578,-0.1543 -0.0394,-0.0156 -0.0767,-0.0354 -0.11524,-0.0527 -0.0587,0.0755 -0.13181,0.14299 -0.21875,0.20117 -0.0657,0.1374 -0.14466,0.26814 -0.23437,0.39063 -0.0172,0.0235 -0.035,0.0453 -0.0527,0.0684 -0.009,0.0125 -0.0176,0.0269 -0.0293,0.0371 -0.10239,0.0908 -0.20834,0.17688 -0.3125,0.26563 -0.11342,0.0437 -0.22642,0.0872 -0.33984,0.13086 -0.84054,0.32373 -0.67638,-0.16212 -0.375,-0.75586 -0.004,-9.3e-4 -0.008,5e-5 -0.0117,-0.002 -0.24537,0.1009 -0.39224,0.10327 -0.45508,0.0293 0.11935,0.0739 0.2604,0.0305 0.40625,-0.043 -0.006,-0.002 -0.0111,-0.004 -0.0176,-0.006 -0.0387,-0.0106 -0.0794,-0.0178 -0.11719,-0.0313 -0.1045,-0.0379 -0.20828,-0.0794 -0.31055,-0.12304 -0.007,0.0866 0.002,0.1569 0.0391,0.20117 -0.008,-0.005 -0.0136,-0.0114 -0.0215,-0.0176 -0.12942,-0.10059 -0.23368,-0.18958 -0.33203,-0.27734 -0.0888,-0.0128 -0.16718,-0.044 -0.22461,-0.11328 -1.32009,-1.59235 -0.13864,-1.73775 -0.43945,-1.21094 -0.002,0.0436 -0.01,0.0873 -0.0117,0.13086 -0.0198,0.38767 0.0432,0.55551 0.1582,0.58594 -0.16878,-0.36752 0.0509,-0.60373 0.35156,-0.89258 -0.0151,0.005 -0.0299,0.008 -0.0449,0.0117 -0.0478,0.011 0.0684,-0.0694 0.10547,-0.10157 0.007,-0.006 0.0113,-0.008 0.0156,-0.0117 -0.006,-0.005 -0.0114,-0.0109 -0.0176,-0.0156 -0.0183,-0.014 -0.0446,-0.0185 -0.0625,-0.0332 -0.0776,-0.063 -0.15389,-0.129 -0.23047,-0.19336 -0.14404,-0.20687 -0.188,-0.22794 -0.25391,-0.39844 -0.0136,-0.0354 -0.0314,-0.07 -0.0371,-0.10742 -0.0202,-0.12927 -0.0327,-0.26008 -0.041,-0.39063 -8.1e-4,-0.0139 0.009,-0.0418 0.0117,-0.0644 4e-5,-0.009 10e-4,-0.0183 0,-0.0273 -0.002,-0.0117 -0.01,-0.0215 -0.0117,-0.0332 -0.0144,-0.10446 -0.0232,-0.20968 -0.0352,-0.31445 -0.0933,-0.80718 0.16769,-1.33667 0.53516,-1.56055 -0.0307,-0.0607 5.1e-4,-0.11742 0.0801,-0.16992 v -0.002 c -0.11698,-0.3644 -0.18252,-0.58781 0.0293,-0.83399 -0.0419,-0.0824 -0.0785,-0.17721 -0.14258,-0.37304 -0.0277,-0.0853 -0.0388,-0.17642 -0.0664,-0.26172 -0.003,-0.0113 -0.0179,-0.0124 -0.0254,-0.0215 -0.0125,-0.0151 -0.0198,-0.0342 -0.0293,-0.0508 -0.006,-0.007 -0.0116,-0.0145 -0.0176,-0.0215 -0.35672,0.22887 -0.32976,0.1129 -0.13086,-0.16016 0.0342,0.0434 0.0663,0.0821 0.0879,0.10742 0.015,0.017 0.028,0.0339 0.043,0.0508 0.0378,-0.0245 0.0785,-0.0518 0.125,-0.084 0.37733,-0.26159 0.81835,-0.45329 1.17383,-0.73828 0.002,-0.1567 0.006,-0.31469 0.0156,-0.4707 -0.0287,-0.006 -0.0572,-0.0122 -0.0859,-0.0176 -0.17917,-0.033 -0.27023,-0.0575 -0.35743,-0.0762 -0.35252,0.42787 -0.78532,0.92168 -1.00781,1.22656 -0.1896,-0.24026 -0.51687,-0.70503 -0.38476,-0.86133 0.18831,-0.2226 0.43061,-0.38445 0.6875,-0.5293 -0.0892,-0.0177 -0.16567,-0.0426 -0.1543,-0.11328 0.0103,-0.0636 0.0308,-0.12482 0.0449,-0.1875 -0.0671,-0.006 -0.13411,-0.0118 -0.20117,-0.0176 -0.0307,-0.21995 -0.0787,-0.44043 -0.12695,-0.66015 z m 6.0957,0.002 c 0.0768,0.0125 0.15369,0.0249 0.23047,0.0371 0.0643,0.01 0.12883,0.0196 0.19336,0.0293 -0.0271,-0.0222 -0.057,-0.0438 -0.082,-0.0664 z m 14.05664,0 c 0.0126,0.0714 0.0239,0.14311 0.0332,0.21485 0.0768,0.0474 0.14693,0.10767 0.1875,0.18554 0.13433,0.25782 0.19175,0.54765 0.28711,0.82227 8.9e-4,0.019 -4e-4,0.0186 0.002,0.0351 0.40146,0.001 0.87739,0.25893 1.27343,0.875 0.0316,0.0492 0.0666,0.0976 0.0957,0.14844 0.043,0.0755 0.0808,0.15359 0.12109,0.23047 0.12627,0.0589 0.25161,0.11894 0.37695,0.17969 0.0589,-0.0264 0.11627,-0.0568 0.17578,-0.0801 0.0888,-0.0348 0.19026,-0.0282 0.28516,-0.0195 0.38838,0.0361 0.37845,0.0447 0.62695,0.15625 0.16409,0.0943 0.4144,0.21408 0.51758,0.38476 0.10416,0.17237 0.17951,0.3602 0.2461,0.55079 h 0.002 c 0.0374,0.011 0.0718,0.0231 0.10742,0.0351 0.20084,-0.40179 0.52284,-0.60937 0.84961,-0.60937 0.52702,0 1.05274,0.52099 1.05273,1.56445 0,0.0246 -0.002,0.0496 0,0.0742 0.0105,0.12929 0.0266,0.25761 0.0391,0.38672 0.0564,0.58182 0.0315,0.37271 0.11328,1.04883 0.0161,0.13416 0.0308,0.26873 0.0508,0.40234 0.0284,0.18796 0.0625,0.37503 0.0937,0.5625 0.11346,0.60598 0.0631,0.3357 0.2207,1.1875 0.0378,0.20458 0.072,0.40933 0.11328,0.61328 0.0885,0.43752 0.18216,0.87402 0.2754,1.31055 0.0728,0.34064 0.13561,0.68401 0.22265,1.02148 0.01,0.0386 0.0217,0.0768 0.0312,0.11524 v -11.39649 z m -19.25977,0.68555 c -0.0155,0.003 -0.0373,0.004 -0.0547,0.006 -0.005,0.0274 -0.008,0.0541 -0.0137,0.084 0.0453,-0.024 0.0899,-0.0497 0.13476,-0.0742 -0.0203,-0.005 -0.0391,-0.0105 -0.0644,-0.0156 z m 1.35938,0.67969 c -0.0561,0.0321 -0.11084,0.0641 -0.16602,0.0957 0.0249,0.037 0.051,0.0732 0.0742,0.11133 0.10931,0.17952 0.1886,0.4148 0.25391,0.60547 0.003,0.007 -0.003,0.0155 -0.002,0.0234 0.002,0.0245 0.0287,0.076 0.01,0.0742 -0.0429,-0.003 -0.0676,-0.0536 -0.10156,-0.0801 0.009,0.0313 0.003,0.0745 0.0293,0.0937 0.0209,0.0153 0.0441,0.0261 0.0664,0.0391 0.0434,-0.0117 0.0793,-0.0352 0.10352,-0.0801 0.14028,-0.2596 0.24964,-0.48809 0.33594,-0.69141 -0.0588,-0.0354 -0.11705,-0.0716 -0.17579,-0.10742 -0.1421,-0.0302 -0.28504,-0.0565 -0.42773,-0.084 z m -1.19336,2.52734 c -0.22422,0.0639 -0.41904,0.1298 -0.52734,0.20117 0.0117,0.0365 0.0235,0.0748 0.0352,0.11328 0.0861,-0.036 0.17615,-0.0576 0.26758,-0.0625 0.0423,-0.002 0.0844,-10e-4 0.12695,0.004 0.0225,-0.008 0.047,-0.0126 0.0723,-0.0137 0.11111,-0.005 0.24105,0.0451 0.35156,0.0625 0.0497,0.008 0.0972,0.0234 0.14453,0.041 -0.0384,-0.02 -0.0913,-0.0437 -0.11328,-0.0586 -0.12651,-0.0857 -0.24266,-0.18553 -0.35742,-0.28711 z m 0.16602,0.32812 c 0.17211,0.078 0.33336,0.21649 0.46679,0.41602 0.0481,-0.0299 0.10385,-0.0627 0.15039,-0.0918 -0.0238,-0.0373 -0.0492,-0.0736 -0.0781,-0.10742 -0.15016,-0.17605 -0.34285,-0.20377 -0.53906,-0.2168 z m 0.63281,0.17188 c 0.005,0.003 0.0103,0.007 0.0156,0.01 0.0545,0.0319 0.0681,0.0406 0.10157,0.0605 0.005,-0.003 0.0128,-0.007 0.0176,-0.01 -0.0479,-0.0203 -0.0884,-0.0403 -0.13476,-0.0605 z m 1.48828,3.39844 c -5.7e-4,0.0294 -0.003,0.0455 -0.004,0.0508 -9e-4,-0.005 -10e-4,-0.0255 0.004,-0.0508 z m -2.29102,1.21679 c -0.0142,1.1e-4 -0.0286,0.002 -0.043,0.002 -0.002,0.014 -0.008,0.0316 -0.01,0.0449 0.006,9.3e-4 0.011,-1.7e-4 0.0176,0.002 0.0712,-0.007 0.25586,-0.004 0.27734,-0.0156 -8.2e-4,-0.002 -0.005,-0.007 -0.0156,-0.01 -0.0702,-0.0203 -0.14699,-0.024 -0.22657,-0.0234 z m 4.07422,2.23243 c 0.006,0.0549 0.0102,0.10848 0.0195,0.14843 10e-4,-9e-5 0.003,10e-5 0.004,0 -0.007,-0.0514 -0.005,-0.0985 -0.006,-0.14648 -0.006,-6e-4 -0.0117,-2.5e-4 -0.0176,-0.002 z m 1.50586,0.0644 c -0.0417,0.0179 0.0608,0.0932 0.16602,0.17383 -0.008,-0.0292 -0.0169,-0.058 -0.0234,-0.0879 -0.002,-0.008 -0.002,-0.0159 0,-0.0234 0.002,-0.006 0.01,-0.0103 0.01,-0.0156 -0.009,-0.0154 -0.0222,-0.027 -0.0352,-0.0391 -0.015,-0.002 0.003,0.001 -0.0176,-0.004 -0.0539,-0.009 -0.0852,-0.01 -0.0996,-0.004 z m -1.00586,0.0234 c 0.0136,-0.0159 -0.001,0.043 0.006,0.0625 h 0.002 c 0.002,-0.002 0.006,-0.005 0.008,-0.008 -0.005,0.0107 -0.011,0.018 -0.0176,0.0234 10e-4,-0.004 0.002,-0.008 0.004,-0.0117 -5e-4,-0.0219 -0.0163,-0.0499 -0.002,-0.0664 z m 1.42774,0.0508 c -0.0478,0.004 -0.0936,0.0208 -0.12891,0.0469 0.005,0.0127 0.0106,0.0244 0.002,0.0176 -0.007,-0.005 -0.004,-0.007 -0.01,-0.0117 -0.028,0.0232 -0.0484,0.0525 -0.0527,0.0899 -4.7e-4,0.004 -4.6e-4,0.008 0,0.0117 v 0.002 c 0.0454,0.037 0.0845,0.0707 0.10547,0.10156 0.0632,-0.0585 0.14413,-0.17893 0.21094,-0.23828 -0.0375,-0.0172 -0.0827,-0.0231 -0.12695,-0.0195 z m 0.19531,0.0762 c 0.002,0.007 0.005,0.0129 0.01,0.0215 -0.003,-0.007 -0.006,-0.0149 -0.01,-0.0215 z m 12.92578,0.55273 c 0.0139,0.0301 0.0295,0.061 0.0352,0.0879 10e-4,0.006 0.006,0.0229 0.004,0.0176 -0.0129,-0.0349 -0.0293,-0.0697 -0.0391,-0.10547 z m 7.375,5.4336 c -0.0142,0.0114 -0.0325,0.0258 -0.0391,0.0312 0.0114,0.0126 0.0243,0.024 0.0352,0.0371 0.002,0.002 0.002,0.004 0.004,0.006 z m -0.51367,3.77148 c -0.0688,0.0228 -0.13804,0.0442 -0.20703,0.0664 0.0457,0.13988 0.0903,0.27968 0.13476,0.41992 0.0557,-0.10325 0.0796,-0.15237 0.15235,-0.28125 -0.0196,-0.0454 -0.0377,-0.085 -0.0625,-0.14844 -0.007,-0.0187 -0.0111,-0.038 -0.0176,-0.0566 z m 0.51367,0.35938 c -0.13976,0.0518 -0.22182,0.0738 -0.2832,0.0527 5.3e-4,0.0107 -10e-4,0.018 0.002,0.0293 -0.0392,0.0995 -0.0781,0.19926 -0.11719,0.29883 0.0258,0.0327 0.0521,0.0651 0.0781,0.0977 0.0434,0.0519 0.0472,0.0568 0.0781,0.0937 0.0797,-0.16761 0.16055,-0.33923 0.24219,-0.50976 z m -0.91992,1.43945 c -0.0563,0.20713 -0.15647,0.37313 -0.28516,0.49219 0.0122,0.0151 0.0248,0.0299 0.0371,0.0449 0.048,0.0586 0.1949,0.22858 0.14063,0.17578 -0.0676,-0.0658 -0.13188,-0.13356 -0.19532,-0.20312 -0.11914,0.10392 -0.2603,0.16991 -0.41406,0.18945 -0.0519,0.049 -0.11271,0.0785 -0.17578,0.0996 0.0552,0.27062 0.19684,0.59434 0.39063,0.94922 0.55148,0.0542 1.05236,0.12802 1.42187,0.25195 v -1.86328 c -0.36771,-0.083 -0.67313,-0.1269 -0.91992,-0.13672 z" />
    </clipPath>
    <clipPath
       clipPathUnits="userSpaceOnUse"
       id="clipPath12624">
      <path
         id="path12626"
         style="fill:#ff0000;fill-opacity:1;fill-rule:nonzero;stroke:none"
         d="m 287.69727,355.26172 -49.72266,0.002 v 72.71875 h 75.18164 V 391.4375 c -0.0108,0.003 -0.0156,0.003 -0.0273,0.006 -0.24347,0.0593 -0.48697,0.1167 -0.72852,0.18359 -0.24466,0.0673 -0.24113,0.083 -0.53711,0.11328 -0.0238,0.002 -0.0481,5.2e-4 -0.0723,0 -0.13604,0.26636 -0.29425,0.4922 -0.46485,0.68165 0.088,0.26107 0.0536,0.21506 -0.0332,0.0351 -1.34778,1.4434 -3.52961,0.56732 -3.47266,-2.18945 -0.80593,0.30824 -1.32238,0.25735 -0.91601,-0.95508 -0.77505,-1.22766 -0.10311,-2.67512 1.66601,-2.90234 0.0452,-0.0904 0.0962,-0.17467 0.1543,-0.25391 -0.0151,-0.18653 -0.0343,-0.37291 -0.0254,-0.56055 0.004,-0.19816 0.009,-0.39686 0.0117,-0.5957 -0.0322,-0.12566 -0.0752,-0.24858 -0.10352,-0.375 -0.0125,-0.0548 -0.0171,-0.11241 -0.0254,-0.16797 -0.0332,-0.20957 -0.0568,-0.42765 -0.10547,-0.63476 -0.0707,-0.30091 -0.17188,-0.59703 -0.21289,-0.9043 -0.005,-0.0197 -0.007,-0.0215 -0.0137,-0.0469 -0.0301,-0.15542 -0.0444,-0.22583 -0.0566,-0.29882 -0.30027,-0.43735 -0.53356,-0.92768 -0.65625,-1.44141 -0.0349,-0.14831 -0.0722,-0.29678 -0.10547,-0.44531 -0.0955,-0.42879 -0.0172,-0.14993 -0.13672,-0.625 -0.0406,0.0374 -0.0755,0.0666 -0.11719,0.10547 -0.0861,0.0803 -0.86645,-0.55937 -0.98437,-0.65235 -0.0678,-0.0537 -0.13378,-0.10806 -0.20117,-0.16211 -0.24927,-0.20322 -0.53985,-0.42507 -0.74024,-0.67187 -0.18206,-0.22428 -0.33691,-0.47075 -0.48828,-0.7168 -0.0566,-0.0921 -0.0903,-0.19635 -0.13476,-0.29492 -0.0849,-0.18841 -0.11584,-0.25792 -0.15039,-0.33594 -0.25481,-0.0591 -0.46292,-0.15998 -0.69532,-0.26562 -2.60152,-1.18253 -2.72098,-3.30789 -1.38281,-4.13672 -0.031,-0.0718 -0.0582,-0.14462 -0.0801,-0.2168 -0.204,-0.41701 -0.21532,-0.55762 -0.0781,-0.48633 -1.6e-4,-0.006 0.002,-0.0116 0.002,-0.0176 -0.009,-0.009 -0.0186,-0.0179 -0.0273,-0.0273 -0.18914,-0.20457 -0.46651,-0.58111 -0.60742,-0.7832 -0.051,-0.0731 -0.093,-0.15194 -0.13868,-0.22852 -0.21887,-0.36703 -0.17843,-0.29826 -0.36718,-0.625 -0.0718,-0.12795 -0.14425,-0.25618 -0.21485,-0.38476 -0.18316,-0.33359 -0.0684,-0.13484 -0.0391,-0.0859 -0.0154,-0.0287 -0.0619,-0.11284 -0.16797,-0.30274 -0.19979,-0.35764 -0.12959,-0.19449 -0.35156,-0.66015 -0.0124,-0.0261 -0.0229,-0.0531 -0.0332,-0.0801 -0.0399,9.1e-4 -0.0772,0.005 -0.12696,-0.01 -0.0236,-0.007 -0.0445,-0.0222 -0.0664,-0.0332 v 0.002 c -0.10707,-0.0535 -0.16842,-0.1221 -0.19532,-0.18945 -0.0755,0.0308 -0.15048,0.0636 -0.2207,0.10547 0.031,-0.0251 0.052,-0.0352 0.0586,-0.0391 -7.8e-4,-0.002 -0.009,-0.009 -0.0254,-0.0156 3.1e-4,0.004 -3.6e-4,0.008 0,0.0117 -0.0133,-0.009 -0.0254,-0.0166 -0.0391,-0.0254 -0.0654,0.0373 -0.12952,0.0606 -0.19336,0.0879 v 0.006 c -0.007,0.0246 -0.0236,0.0331 -0.0488,0.0195 -0.56521,0.22272 -1.0522,0.0672 -1.27929,-0.30273 -0.0216,0.0154 -0.0446,0.0318 -0.0664,0.0469 -0.1094,0.0756 -0.21912,0.14936 -0.33008,0.22266 -0.10305,0.17383 -0.35002,0.373 -0.78125,0.60351 -0.83864,0.4481 -1.79657,1.08589 -2.74804,-0.0156 -0.0218,0.0206 -0.0437,0.0428 -0.0645,0.0625 -0.092,-0.0812 -0.18512,-0.16128 -0.27734,-0.24219 -0.60841,0.0395 -1.54759,-0.0837 -2.52539,-0.29883 0.31311,-0.16614 0.70799,-0.5283 1.12109,-0.92968 -0.49098,-0.42982 -0.97736,-0.8625 -1.45898,-1.30274 -0.0833,0.16557 -0.18807,0.32367 -0.23633,0.50196 -0.0586,0.2152 -0.0448,0.44382 -0.0664,0.66601 -0.0431,0.44271 -0.0243,0.73911 0.041,0.92188 0.19901,0.0505 0.39735,0.0989 0.5957,0.14257 -0.28186,0.14955 -0.49671,0.13973 -0.59766,-0.14257 -3.08378,-0.78389 -5.95183,-2.32377 0.50782,-2.38282 0.15222,-0.14326 0.29417,-0.29019 0.43554,-0.4414 -0.64183,0.18009 -1.35177,0.70518 -1.88671,0.35156 -0.0596,-0.0394 -0.0989,-0.0732 -0.1543,-0.11133 -0.0986,-0.0133 -0.17347,-0.0764 -0.23633,-0.16992 -0.38264,-0.28188 -0.64382,-0.52943 -0.82226,-0.75977 -1.40395,0.57808 -3.63842,-0.61786 -3.18946,-3.27148 0.055,-0.32475 0.0225,-0.15359 0.0996,-0.51563 0.0398,-0.16863 0.0774,-0.33767 0.11914,-0.50586 0.001,-0.004 0.009,-0.009 0.01,-0.0137 -0.2446,0.003 -0.51228,-0.22535 -0.59766,-0.71093 -0.0113,-0.0634 -0.009,-0.12742 -0.0117,-0.19141 -3.8e-4,-0.0134 -0.0117,-0.0707 -0.0117,-0.082 -1.6e-4,-0.028 -3e-4,-0.056 0,-0.084 -0.19936,0.20401 -0.45363,0.20902 -0.625,0.0586 -0.23319,0.26936 -0.59422,0.22018 -0.75976,-0.11524 -0.0674,0.039 -0.13399,0.0591 -0.19922,0.0684 -0.69863,0.29211 -1.28798,-0.44054 -0.61914,-1.37695 0.0597,-0.0836 0.0656,-0.0983 0.16406,-0.19531 0.0237,-0.0233 0.0501,-0.0456 0.0762,-0.0664 -0.002,-0.0132 -0.01,-0.0256 -0.0117,-0.0391 -0.0285,-0.22445 0.028,-0.45262 0.10547,-0.66211 0.0242,-0.0655 0.0525,-0.12919 0.0801,-0.19336 0.0639,-0.1488 0.046,-0.0743 0.0664,-0.16016 -0.002,0.005 -0.0131,0.0186 -0.0117,0.0137 0.0392,-0.0883 0.0627,-0.18528 0.11914,-0.26367 0.035,-0.0486 0.084,-0.0774 0.125,-0.11718 0.003,-0.16 0.13059,-0.28999 0.33594,-0.29883 0.0478,-0.002 0.11224,0.0287 0.16797,0.041 -0.17879,-0.2097 -0.0332,-0.52845 0.41796,-0.55859 0.1004,-0.14622 0.22309,-0.2174 0.33594,-0.22656 0.102,-0.008 0.19585,0.0346 0.25781,0.11718 0.0339,-0.0119 0.0595,-0.0239 0.10743,-0.0332 0.0559,-0.0123 0.0651,-0.0159 0.0859,-0.0117 -0.0707,0.023 -0.10831,0.0597 -0.16406,0.0918 0.072,0.0726 0.10611,0.18605 0.0801,0.32226 0.0218,0.0139 0.0436,0.0271 0.0664,0.041 0.0362,-0.0202 0.0729,-0.0388 0.11132,-0.0547 0.0348,-0.0342 0.0705,-0.0677 0.10547,-0.10156 0.0404,-0.0342 0.0819,-0.0651 0.125,-0.0957 l 0.004,-0.004 c 0.0244,-0.0173 0.0473,-0.0363 0.0723,-0.0527 0.0238,0.0383 0.0472,0.0782 0.0703,0.11718 0.0111,-0.003 0.0217,-0.007 0.0332,-0.01 0.009,-0.002 0.0115,-0.005 0.0176,-0.006 h 0.002 c -0.0301,-0.0305 -0.0529,-0.0514 -0.10937,-0.11133 -0.0123,-0.0131 -0.0252,-0.009 -0.0391,0.002 0.0393,-0.0288 0.10261,-0.0494 0.23243,-0.0527 0.0316,-8.1e-4 0.0661,-0.008 0.0976,-0.01 0.0191,-10e-4 0.0372,-10e-4 0.0547,0.01 0.0561,0.0234 0.10343,0.0636 0.15625,0.0937 0.10107,0.005 0.1534,0.0423 0.17187,0.10352 0.0102,0.008 0.0232,0.01 0.0332,0.0176 0.0884,0.0707 0.0849,0.3121 0.0762,0.40235 0.0112,-0.003 0.0314,-0.0201 0.041,-0.0215 0.0711,-0.01 0.0996,0.0348 0.10546,0.11133 0.27368,-0.71639 0.66918,-1.21436 1.10743,-1.50781 z m 12.72265,0 c 0.78359,0.37536 1.16815,1.29265 0.79492,2.36133 1.43624,0.42779 1.87088,2.41912 -0.2207,4.16211 -0.12649,0.10537 -0.25104,0.21265 -0.37891,0.3164 -0.16164,0.13113 -0.27349,0.21275 -0.39453,0.3086 0.53602,-0.20144 0.53628,-0.19649 1.0293,-0.3125 0.44438,-0.10456 0.851,-0.14835 1.21875,-0.14258 1.97041,0.031 2.78108,1.48756 2.08789,2.72461 0.17799,0.27783 0.34116,0.59868 0.48047,0.9707 0.0697,0.18626 0.1312,0.36986 0.26367,0.52539 0.0837,0.13242 0.13088,0.19833 0.12305,0.20508 0.0289,0.0201 0.0572,0.0402 0.0859,0.0606 0.0129,0.009 0.0246,0.0198 0.0371,0.0293 0.17678,0.12854 0.37098,0.23462 0.55078,0.35938 0.43728,0.30342 0.86268,0.63353 1.21289,1.03711 0.11518,0.13967 0.23094,0.27832 0.3457,0.41797 0.35161,0.14696 0.64182,0.40587 0.83789,0.75976 0.17367,0.14627 0.32476,0.29523 0.45508,0.44727 0.19733,-0.0446 0.39487,-0.0883 0.5918,-0.13477 0.0492,-0.0129 0.10085,-0.0228 0.14843,-0.041 0.0497,-0.0189 0.0957,-0.0435 0.14258,-0.0684 0.0332,-0.0177 0.0606,-0.0473 0.0957,-0.0605 0.22823,-0.0859 0.44429,-0.1485 0.68165,-0.19336 0.0857,-0.0163 0.1734,-0.0246 0.25976,-0.0371 0.0486,-0.002 0.0978,-0.009 0.14648,-0.0117 0.0137,-6.9e-4 0.0258,-0.002 0.0391,-0.002 0.83415,-0.0136 0.85816,0.89592 -0.01,0.88476 -0.0178,-1.5e-4 -0.035,2.3e-4 -0.0527,0 -0.23303,0.0307 -0.15952,0.0148 -0.40625,0.0723 -0.0743,0.0174 -0.1513,0.0279 -0.22266,0.0547 -0.0599,0.0226 -0.1101,0.0663 -0.16797,0.0937 -0.26198,0.12446 -0.2244,0.10652 -0.45117,0.16601 -0.1,0.0234 -0.20016,0.047 -0.30078,0.0684 0.10686,0.26502 0.15548,0.52784 0.1582,0.7793 0.0149,0.0276 0.0252,0.0181 0.0449,0.0781 0.0786,0.23946 0.15772,0.47929 0.23633,0.71876 -0.0339,0.0247 -0.0664,0.0503 -0.0996,0.0762 0.16694,0.14534 0.16571,0.4321 -0.10937,0.69922 0.24565,0.37256 0.45852,0.83211 0.61719,1.38867 0.17534,0.61498 0.35753,1.2281 0.5371,1.84179 0.0443,0.15126 0.0948,0.30017 0.13282,0.45313 0.002,0.007 0.004,0.0162 0.006,0.0234 0.6215,0.46764 1.11863,1.36085 1.23437,2.70312 0.056,0.64877 0.15544,1.29414 0.25586,1.9375 0.0389,0.19762 0.0524,0.39695 0.0684,0.59766 0.16364,0.30424 0.30047,0.66311 0.40039,1.07422 0.0909,0.20203 0.1714,0.42149 0.23047,0.66797 v -28.06055 z m -10.72265,0.002 c 0.30731,0.22652 0.56205,0.56861 0.72265,1.01953 0.0314,-0.0419 0.0616,-0.0846 0.0918,-0.12695 0.20915,-0.29296 0.40847,-0.59257 0.60742,-0.89258 z m 5.83203,0 c -0.0125,0.61158 -0.23607,1.33287 -0.75,2.11133 -0.2685,0.40669 -0.53814,0.81164 -0.82032,1.20898 -0.0385,0.0543 -0.0793,0.10664 -0.11914,0.16016 0.16776,-0.12607 0.33525,-0.2526 0.50391,-0.37695 0.15277,-0.11267 0.30685,-0.22122 0.46094,-0.33203 0.81506,-0.59085 1.64275,-1.17331 2.38867,-1.85157 0.50077,-0.45533 0.99409,-0.74974 1.45703,-0.91992 z m -10.20899,0.69922 c 0.0942,-0.002 0.26387,0.0475 0.19531,0.0547 -0.17189,-0.0238 -0.21695,-0.0403 -0.24414,-0.0469 0.004,-0.002 0.009,-0.002 0.0137,-0.004 0.009,-0.003 0.0217,-0.004 0.0351,-0.004 z m 0.91407,0.72461 c -0.007,0.014 -0.0123,0.0288 -0.0195,0.043 0.0292,0.009 0.0575,0.02 0.0859,0.0312 0.002,-6.4e-4 0.004,10e-4 0.006,-0.002 -0.0103,-0.0134 -0.047,-0.0466 -0.0723,-0.0723 z m -2.11524,0.11133 c -0.10286,0.0142 -0.1492,0.0396 -0.1582,0.0742 0.006,-8.2e-4 0.01,-0.005 0.0156,-0.006 0.003,-2.6e-4 0.008,1.3e-4 0.0117,0 0.042,-0.0288 0.084,-0.0561 0.13086,-0.0684 z m -0.15039,0.125 c -0.0239,0.008 -0.0576,0.0192 -0.0781,0.0293 -5.5e-4,0.003 -0.002,0.005 -0.004,0.008 0.0299,-0.005 0.0589,-0.0156 0.0879,-0.0254 -0.002,-0.004 -0.004,-0.008 -0.006,-0.0117 z m 0.26563,0.0234 c 0.008,0.005 0.0169,0.0104 0.0254,0.0156 -0.004,-0.005 -0.009,-0.0103 -0.0137,-0.0156 -0.004,5e-5 -0.008,-8e-5 -0.0117,0 z m 7.90624,6.23046 c -0.22248,0.5208 -0.47683,1.02818 -0.76953,1.51368 0.41261,0.16242 0.79206,0.32146 1.05079,0.47461 0.0154,-0.0207 0.0372,-0.0537 0.0508,-0.0723 0.28766,-0.69324 0.4293,-1.17166 -0.33204,-1.91602 z m 4.78321,2.86915 c -0.11521,0.17835 -0.23018,0.358 -0.34571,0.5371 -0.40076,0.60709 -0.48355,0.72666 -0.81445,1.16797 0.60158,0.15119 1.20398,0.3038 1.60156,0.49414 0.17573,-0.55173 0.29669,-1.09505 0.0332,-1.5625 -0.15662,-0.27848 -0.31545,-0.47455 -0.47461,-0.63671 z m 0.10351,3.34374 c -0.0377,0.0237 -0.074,0.0478 -0.11132,0.0723 -0.0342,0.0224 0.10024,-0.0163 0.10742,-0.0566 9.2e-4,-0.005 0.003,-0.0103 0.004,-0.0156 z m 2.9043,0.93946 c 0.003,-4.8e-4 0.005,1.4e-4 0.008,0 0.0367,-0.002 0.0789,0.0302 0.0918,0.10156 0.0178,0.0986 0.009,0.0806 0.0508,0.17774 0.008,0.0188 0.0164,0.0373 0.0274,0.0547 0.0376,0.0584 0.0875,0.10794 0.13476,0.15821 0.007,0.007 0.0158,0.0132 0.0215,0.0215 0.0334,0.0501 0.0459,0.10468 -0.002,0.15234 -0.009,0.009 -0.0298,0.0279 -0.0351,0.0234 -0.004,0.0198 -0.0194,0.0262 -0.0527,0.002 -0.009,-0.006 -0.0167,-0.0131 -0.0254,-0.0195 0.009,-0.0445 0.0269,-0.0874 0.0273,-0.13281 8e-5,-0.0195 -0.0371,0.0256 -0.0391,0.0449 -8.5e-4,0.009 0.001,0.0183 0.004,0.0274 0.004,0.004 0.008,0.009 0.0117,0.0137 0.002,0.003 -0.009,-6.1e-4 -0.01,-0.004 -0.001,-0.003 -0.001,-0.007 -0.002,-0.01 -0.004,-0.004 -0.01,-0.008 -0.0137,-0.0117 -0.058,-0.0619 -0.11515,-0.12261 -0.16016,-0.19531 -0.014,-0.0222 -0.0253,-0.0461 -0.0352,-0.0703 -0.0466,-0.11421 -0.0374,-0.0998 -0.0566,-0.20508 -0.0138,-0.0758 0.0166,-0.12166 0.0547,-0.1289 z m 0.29492,0.53515 c -0.0258,-0.006 -0.002,0.0719 0.002,0.125 0.007,-0.0322 0.0274,-0.062 0.0371,-0.0937 l -0.01,-0.01 c -0.0136,-0.0137 -0.0229,-0.02 -0.0293,-0.0215 z m 2.94141,4.23633 c -0.0776,0.002 -0.12777,0.004 -0.20117,0.008 -0.0218,0.48692 0.0643,0.9944 0.13086,0.70898 0.0548,-0.23508 0.0684,-0.47481 0.0703,-0.7168 z" />
    </clipPath>
    <clipPath
       clipPathUnits="userSpaceOnUse"
       id="clipPath12936">
      <path
         id="path12938"
         style="fill:#ff0000;fill-opacity:1;fill-rule:nonzero;stroke:none"
         d="m 299.71484,367.15625 c -6.5e-4,10e-4 -8e-4,0.003 -0.002,0.004 h 0.004 z m 0.002,0.004 h 0.006 l -0.004,-0.004 c -6.6e-4,10e-4 -7.5e-4,0.003 -0.002,0.004 z m 0.006,0 h 0.006 0.002 l -0.002,-0.002 -0.004,-0.002 c -6.6e-4,10e-4 -7e-4,0.003 -0.002,0.004 z m 0.008,0 h 0.002 l -0.002,-0.002 z m 0.002,0 h 0.002 l -0.002,-0.002 z m 0.002,0 h 0.002 v -0.004 l -0.002,0.002 z m -0.0274,0 -5.01953,0.002 v 28.76758 h 18.58203 c -0.004,-0.002 -0.008,-0.006 -0.0117,-0.008 -0.0963,-0.0612 0.15117,-0.0143 0.13867,-0.0449 -0.003,-0.004 -0.0128,-0.0115 -0.0234,-0.0176 -0.0188,-0.008 -0.0362,-0.018 -0.0547,-0.0293 0.0206,-0.009 0.0427,-0.0163 0.0625,-0.0254 -0.003,-0.03 -0.007,-0.06 -0.006,-0.0899 10e-4,-0.0377 0.005,-0.0581 0.008,-0.0742 -0.004,0.002 -0.009,0.006 -0.0137,0.008 -0.003,0.003 -0.005,0.003 -0.008,0.004 -0.12025,0.0633 -0.10254,0.0396 -0.20508,-0.29296 -0.008,0.006 -0.0157,0.0107 -0.0215,0.0156 -0.0253,0.0219 -0.0422,0.0497 -0.0645,0.0762 -0.037,0.0416 -0.0733,0.0861 -0.11328,0.125 -0.0449,0.0435 -0.0935,0.0819 -0.14062,0.12305 -0.11222,-0.0609 -0.25521,-0.083 -0.33594,-0.18164 -0.0175,-0.0215 -0.014,-0.0501 0.002,-0.0781 -0.0569,-0.0227 -0.0531,-0.10141 0.041,-0.12695 0.0234,-0.007 0.0366,-0.009 0.0469,-0.0117 0.01,-0.0155 0.0191,-0.0314 0.0293,-0.0469 -0.0136,-0.006 -0.028,-0.0123 -0.041,-0.0195 -0.0296,-0.0166 0.0402,-0.0536 0.0625,-0.0801 0.002,-0.002 0.004,-0.005 0.006,-0.008 -0.002,-0.003 -0.004,-0.007 -0.006,-0.01 0.0623,-0.0956 0.098,-0.15002 0.1211,-0.18555 -0.0312,0.0152 -0.0551,0.0273 -0.10352,0.0508 -0.12055,0.0608 -0.16512,0.0821 -0.19922,0.0996 -0.006,0.004 -0.0119,0.006 -0.0176,0.01 -0.0106,0.006 -0.0201,0.0117 -0.0332,0.0195 -0.0795,0.0499 -0.1588,0.10047 -0.23828,0.15039 l -0.002,0.002 c -0.0129,0.0139 -0.0266,0.03 -0.0391,0.0352 h -0.002 c -0.0205,0.0217 -0.0405,0.0418 -0.0566,0.0254 -0.0523,-0.0535 -0.0939,-0.11786 -0.125,-0.1875 -0.0302,-0.0394 -0.0554,-0.0818 -0.0742,-0.12695 -0.007,-0.0164 0.009,-0.0268 0.0293,-0.0352 0.0125,-0.0193 0.0587,-0.0237 0.082,-0.0391 0.002,-0.002 0.21535,-0.13527 0.24219,-0.15039 0.009,-0.005 0.0184,-0.009 0.0273,-0.0137 0.06,-0.0376 0.11972,-0.0756 0.17969,-0.11329 -0.0467,-0.0611 -0.0571,-0.16389 0.0156,-0.29101 0.001,-0.003 0.003,-0.005 0.004,-0.008 -0.12053,0.0446 -0.2379,0.0869 -0.32617,0.11132 -0.0491,0.0113 -0.11713,0.062 -0.15039,0.0234 -0.29387,-0.34269 -0.1166,-0.35582 0.11523,-0.52929 0.22679,-0.16215 0.20094,-0.13575 0.41992,-0.32813 0.0115,-0.0102 0.0222,-0.0206 0.0332,-0.0312 -0.0459,-0.0197 -0.10244,-0.0862 -0.19922,-0.23242 -0.0182,-0.0274 0.0174,-0.0554 0.0488,-0.082 0.002,-0.006 0.0108,-0.0134 0.0215,-0.0195 10e-4,-6.9e-4 0.003,10e-4 0.004,-0.002 0.002,-0.002 0.004,-0.005 0.006,-0.008 0.0693,-0.0983 0.10363,-0.1506 0.16992,-0.25 0.0416,-0.059 0.083,-0.1172 0.125,-0.17578 0.0268,-0.037 0.051,-0.0773 0.0801,-0.11133 0.0775,-0.0938 0.16491,-0.17894 0.2539,-0.26172 9.4e-4,-0.003 0.002,-0.01 0.002,-0.008 -2.3e-4,0.002 2.2e-4,0.004 0,0.006 l 0.004,-0.004 c 5.8e-4,-0.007 -0.003,-0.0158 0,-0.0566 0.003,-0.0457 0.008,-0.091 0.0117,-0.13672 0.004,-0.0464 0.0106,-0.0924 0.0156,-0.13867 0.001,-0.0437 0.003,-0.0875 0.004,-0.13086 0.003,-0.16599 -0.001,-0.33017 0.006,-0.49609 0.005,-0.26068 0.0117,-0.23393 0.0117,-0.53516 -3.8e-4,-0.0729 -0.006,-0.14618 -0.008,-0.21875 -0.001,-0.0979 -0.004,-0.19508 -0.004,-0.29297 3.8e-4,-0.11036 0.0125,-0.26829 0.0254,-0.37109 0.005,-0.0393 0.0166,-0.0763 0.0234,-0.11523 0.0102,-0.0574 0.0198,-0.11601 0.0273,-0.17383 0.006,-0.0435 0.008,-0.087 0.0117,-0.13086 0.008,-0.0677 0.014,-0.13547 0.0234,-0.20313 0.0423,-0.30829 0.13262,-0.60817 0.20508,-0.91015 l -0.002,-0.006 c 0.03,-0.12513 0.0937,-0.19511 0.16016,-0.21875 0.004,-0.34185 0.008,-0.6843 0.0312,-1.02539 0.004,-0.0631 0.012,-0.12634 0.0195,-0.18946 0.0327,-0.27662 0.0238,-0.21205 0.0625,-0.43164 0.011,-0.0665 0.0234,-0.13465 0.0332,-0.20117 0.0244,-0.16116 0.027,-0.32488 0.0625,-0.48437 0.005,-0.0306 0.0115,-0.0616 0.0156,-0.0918 0.0229,-0.16736 -0.002,-0.33843 0.0215,-0.50586 0.024,-0.17112 0.11775,-0.25491 0.20507,-0.25781 0.099,-0.003 0.18991,0.0965 0.16602,0.29101 -0.0183,0.14837 -0.008,0.2985 -0.0195,0.44727 0.0311,-0.0229 0.0632,-0.0368 0.0937,-0.041 0.002,-2.6e-4 0.004,2e-4 0.006,0 0.006,-0.0215 0.0242,-0.0858 0.041,-0.14453 l -0.002,-0.004 c 0.037,-0.12893 0.10899,-0.19717 0.17969,-0.21484 0.0262,-0.0137 0.0508,-0.0232 0.0762,-0.0234 0.0216,-1.8e-4 0.0416,0.007 0.0605,0.0156 0.0194,-0.0112 0.0401,-0.0173 0.0605,-0.0195 0.0217,-0.11885 0.0867,-0.18643 0.15821,-0.19532 0.003,0 0.006,0.002 0.01,0.002 -0.0161,-0.24407 -0.0283,-0.48999 -0.0332,-0.69727 -0.0178,-0.74521 -0.007,-0.74275 -0.008,-1.39453 -2.4e-4,-0.13145 3.6e-4,-0.263 -0.002,-0.39453 -0.11817,-0.33441 -0.20125,-0.68103 -0.27539,-1.0293 -0.43102,-0.13493 -0.8182,-0.62838 -0.85937,-1.49218 -0.0131,-0.27455 -0.0154,-0.54941 -0.0156,-0.82422 -0.77097,1.15491 -2.223,0.4895 -1.72656,-1.24805 0.0389,-0.1358 0.0146,-0.0419 0.0527,-0.25586 0.0564,-0.31653 0.0381,-0.17217 0.0762,-0.57031 0.009,-0.0936 0.0202,-0.18733 0.0234,-0.28125 0.004,-0.12359 3.9e-4,-0.24747 0,-0.3711 -0.003,-0.0858 0.001,-0.17074 -0.01,-0.25586 -0.0231,-0.17658 -0.0719,-0.29955 -0.11328,-0.46679 -0.001,-0.006 -0.002,-0.0117 -0.004,-0.0176 -0.01,0.0128 -0.0154,0.0292 -0.0293,0.0391 -0.35609,0.25362 -0.49637,-0.17511 -0.58984,-0.34179 -0.0964,-0.2192 -0.2013,-0.43537 -0.28906,-0.65821 -0.0152,-0.0385 -0.0273,-0.0782 -0.041,-0.11719 -0.0135,0.009 -0.0276,0.0179 -0.041,0.0274 -0.086,-0.023 -0.17788,-0.0292 -0.25782,-0.0684 -0.0591,-0.029 -0.10108,-0.0851 -0.14843,-0.13086 -0.0816,-0.0789 -0.16239,-0.1578 -0.23829,-0.24219 -0.0614,-0.0683 -0.11581,-0.14359 -0.17382,-0.21484 -0.2157,-0.26492 -0.20719,-0.25325 -0.33203,-0.40234 -0.1515,0.11605 -0.2015,0.16329 -0.2793,0.0684 -0.003,-7.7e-4 -0.005,0.001 -0.008,-0.002 0.002,-2.8e-4 0.004,-0.004 0.006,-0.004 -0.0246,-0.0312 -0.0516,-0.0739 -0.0859,-0.13672 -0.0156,-0.0286 -0.0287,-0.0568 -0.0371,-0.084 v -0.004 c -0.003,-0.004 -0.0108,-0.0119 -0.0137,-0.0156 -0.0509,0.0274 -0.10444,0.047 -0.16016,0.0625 0.0155,0.0117 0.0294,0.0255 0.0449,0.0371 0.0437,0.0327 0.0889,0.0657 0.13672,0.0918 0.0345,0.0189 0.0708,0.0322 0.10742,0.0469 -0.51791,0.063 0.74152,0.2521 0.26172,0.45703 -0.0447,0.019 -0.0871,0.0491 -0.13476,0.0586 -0.168,0.0334 -0.18475,0.0125 -0.32618,-0.0293 -0.0673,-0.032 -0.13838,-0.0587 -0.20312,-0.0957 -0.0607,-0.0345 -0.11827,-0.0768 -0.17383,-0.11914 -0.0948,-0.0722 -0.18702,-0.14475 -0.27539,-0.22461 -0.17443,-0.15769 -0.40397,-0.43157 -0.5293,-0.60547 -0.0522,-0.0724 -0.0942,-0.1512 -0.13867,-0.22852 l -0.002,-0.002 c -0.0657,-0.0949 -0.12727,-0.20261 -0.18555,-0.32031 -7.3e-4,-10e-4 2.5e-4,-0.003 -0.002,-0.004 -0.1479,0.0729 -0.30686,0.0943 -0.46289,0.0742 -0.54445,0.57219 -0.9434,0.7556 -1.40235,0.5957 -0.0427,0.0698 -0.0861,0.13919 -0.1289,0.20899 8.4e-4,0.0107 0.003,0.0184 0.004,0.0293 0.0228,0.31745 0.3327,0.77501 0.0684,0.95118 -0.17629,0.11717 -0.32139,0.21474 -0.46875,0.3125 0.0101,0.17942 -0.10893,0.28758 -0.42968,0.28125 -1.05108,0.68017 -1.22444,0.67764 -1.66407,0.24023 -0.21349,0.14234 -0.36978,0.0533 -0.42578,-0.44922 -0.0223,-0.025 -0.0446,-0.0509 -0.0605,-0.0703 -0.10382,-0.12584 -0.20376,-0.25344 -0.30078,-0.38477 -0.0393,-0.0531 -0.0719,-0.11219 -0.10742,-0.16797 -0.1864,-0.29345 -0.12098,-0.17733 -0.2168,-0.35546 -0.33467,-0.47496 0.0827,0.0942 -0.49218,-0.57813 -0.0223,-0.026 -0.0423,-0.054 -0.0645,-0.0801 -0.005,-3.2e-4 -0.0112,-0.01 -0.0215,-0.0117 -0.0152,-0.003 -0.0304,-0.007 -0.0449,-0.0117 0.001,0.0118 0.002,0.0249 0,0.0274 -0.0386,0.0433 -0.0757,0.0969 -0.12696,0.0625 -0.011,-0.007 -0.0215,-0.0167 -0.0312,-0.0254 -0.0335,-0.0505 -0.0596,-0.10594 -0.0899,-0.1582 -3.8e-4,-0.0138 -0.0281,-0.0345 -0.0312,-0.0391 -0.0242,-0.0352 -0.0234,-0.0418 -0.0352,-0.0781 -0.0178,-0.0132 -0.034,-0.0286 -0.0508,-0.043 -0.005,-0.005 -0.0233,-0.0219 -0.0234,-0.0332 0,-0.003 0.002,-0.009 0.002,-0.0117 -0.005,-0.002 -0.009,-0.004 -0.0137,-0.006 -0.0311,-0.0117 -0.0311,-0.01 -0.0605,-0.0371 -0.004,-0.003 -0.007,-0.009 -0.01,-0.0137 -0.003,-0.005 -0.007,-0.0107 -0.01,-0.0156 v -0.0117 c 0.002,-5.6e-4 0.007,-8e-5 0.01,0 -0.008,-0.002 -0.0173,-0.008 -0.0254,-0.0117 -0.0204,-0.008 -0.0267,-0.0188 -0.041,-0.0332 -0.0329,-0.032 -0.0693,-0.0617 -0.0957,-0.0996 -0.0106,-0.0168 0.005,0.01 -0.0215,-0.0137 -0.0182,-0.016 -0.0268,-0.026 -0.0312,-0.0449 -0.002,-0.001 -0.004,-0.005 -0.006,-0.006 -0.0218,-0.0152 -0.0421,-0.0337 -0.0527,-0.0586 -0.003,-0.006 -0.006,-0.0119 -0.01,-0.0176 -0.0227,-0.0315 -0.009,7.1e-4 -0.0312,-0.0449 -0.002,-0.004 -0.003,-0.01 -0.004,-0.0137 0.002,-7.7e-4 0.003,-0.003 0.004,-0.004 -10e-4,-0.002 -0.003,-0.004 -0.006,-0.006 -0.0298,-0.0187 -0.0599,-0.0367 -0.0859,-0.0605 -0.014,-0.0123 -0.0281,-0.0236 -0.0391,-0.0391 -0.003,-0.004 -5.1e-4,-0.006 0,-0.008 -10e-4,-10e-4 -0.008,-0.005 -0.0117,-0.008 -0.007,-0.005 -0.0139,-0.006 -0.0215,-0.01 -0.0344,-0.0177 -0.0903,-0.0495 -0.10352,-0.0918 9.7e-4,10e-4 0.009,7.7e-4 0.008,0 l -0.0117,-0.004 c -6.2e-4,-0.003 -0.006,-0.003 -0.006,-0.006 -0.0137,-0.007 -0.0297,-0.0121 -0.041,-0.0215 -0.0314,-0.0225 -0.0724,-0.0504 -0.0898,-0.0859 -0.0159,-0.0317 -0.0149,-0.0233 -0.0137,-0.041 -0.003,-0.002 -0.009,-0.005 -0.0117,-0.008 -0.0194,-0.0147 -0.038,-0.0337 -0.043,-0.0586 -5e-5,-0.003 0.002,-0.009 0,-0.0117 -0.003,-0.004 -0.009,-0.005 -0.0137,-0.008 -0.0177,-0.0107 -0.0363,-0.0231 -0.0449,-0.043 -0.0195,0.0232 -0.0246,0.006 -0.0254,-0.0234 -0.0141,-0.015 -0.018,-0.0251 -0.0274,-0.0469 -0.002,-0.004 -0.008,-0.008 -0.01,-0.0117 -0.003,-0.005 -0.008,-0.0111 -0.0117,-0.0156 -0.004,-0.005 -0.007,-0.01 -0.0117,-0.0137 -0.006,-0.005 -0.0108,-0.0103 -0.0176,-0.0156 -0.0183,-0.014 -0.0442,-0.0278 -0.0488,-0.0527 -0.003,-0.0121 -0.0132,-0.016 -0.0215,-0.0254 -0.026,-0.0291 -0.0523,-0.0592 -0.0742,-0.0918 -0.0117,-0.016 -0.0221,-0.0326 -0.0332,-0.0488 -0.0199,-0.0284 -0.0222,-0.0357 -0.0449,-0.0645 -0.0126,-0.016 -0.0292,-0.0268 -0.0391,-0.0449 -0.004,-0.006 -0.008,-0.0135 -0.0117,-0.0195 -0.0385,-0.059 -0.0746,-0.11895 -0.11914,-0.17383 -0.008,-0.0117 -0.0178,-0.0214 -0.0254,-0.0332 -0.002,-0.003 -0.003,-0.007 -0.004,-0.01 -5.1e-4,-0.002 -6e-5,-0.01 -0.002,-0.0117 -0.004,-0.004 -0.0109,-0.008 -0.0156,-0.0117 -0.0231,-0.0193 -0.0261,-0.0239 -0.0469,-0.0469 -0.0102,-0.0146 -0.0202,-0.0298 -0.0293,-0.0449 -0.004,-0.006 -0.009,-0.0112 -0.0117,-0.0176 -0.0129,-0.0316 -0.0303,-0.0599 -0.0469,-0.0898 -0.006,-0.0102 -0.013,-0.0215 -0.0195,-0.0312 -0.0212,-0.0337 -0.049,-0.0657 -0.0664,-0.10156 -0.0184,-0.0388 -0.0313,-0.0755 -0.043,-0.11719 -0.006,-0.0204 -0.0119,-0.0373 -0.0156,-0.0547 -0.0167,-0.0129 -0.0212,-0.0234 -0.0332,-0.043 -0.005,-0.0127 -0.01,-0.0258 -0.0137,-0.0391 -0.002,-0.006 -0.007,-0.0136 -0.008,-0.0215 -0.007,-0.0142 -0.0145,-0.028 -0.0215,-0.043 -0.0177,-0.0367 -0.0368,-0.0741 -0.041,-0.11524 h 0.004 c -0.004,-0.0385 0.011,-0.0626 0.0293,-0.0664 10e-4,-2.5e-4 0.007,9e-5 0.008,0 0.007,-0.0503 0.0326,-0.0817 0.0605,-0.0918 -0.002,-0.007 -0.009,-0.0154 -0.0117,-0.0293 -0.007,-0.0344 0.005,-0.0553 0.0215,-0.0625 -0.003,-0.007 -0.009,-0.0111 -0.0117,-0.0176 -0.0629,-0.16223 9.5e-4,-0.26824 0.0899,-0.27929 0.016,-0.002 0.0356,0.002 0.0527,0.008 0.006,-0.0979 0.0645,-0.15413 0.13086,-0.15625 0.0248,-7.9e-4 0.0513,0.006 0.0762,0.0215 0.006,-0.003 0.01,-0.011 0.0156,-0.0117 0.0167,-0.002 0.0323,0.009 0.0469,0.0215 0.009,-0.005 0.0161,-0.009 0.0254,-0.0117 -0.002,-0.006 -0.01,-0.0117 -0.0117,-0.0176 -0.10137,-0.30216 -0.2183,-0.60045 -0.28906,-0.91211 -0.18241,-0.80399 -0.0851,-1.44404 0.15039,-1.90429 z m 1.48633,5.93164 c 0.002,-0.009 0.004,-0.0162 0.004,-0.0254 -3.8e-4,-0.006 -0.006,0.01 -0.006,0.0156 -1.9e-4,0.003 3e-4,0.007 0.002,0.01 z m 1.69531,1.95898 c 0.0846,0.0947 0.20231,0.21949 0.27539,0.29688 0.055,0.0561 0.10339,0.10557 0.15039,0.15234 0.13083,-0.0872 0.28381,-0.26666 0.44727,-0.48438 -0.33748,-0.15682 -0.62635,-0.43187 -0.86914,-0.70117 -0.0559,-0.062 -0.10318,-0.13114 -0.1543,-0.19726 -0.009,0.19058 0.12389,0.45851 0.13086,0.6582 0.004,0.10352 0.0105,0.19426 0.0195,0.27539 z m 10.57617,-7.88867 c 0.0334,0.0396 0.0662,0.0795 0.0996,0.11914 0.0282,0.0335 0.0309,0.0491 0.0391,0.0684 0.0566,0.003 0.11337,0.006 0.16992,0.01 0.0818,0.005 0.18315,0.0138 0.28515,0.0312 0.0922,-0.0296 0.15953,-0.0269 0.17579,0.043 v 0.002 c 0.12095,0.0438 0.22515,0.11337 0.27148,0.23242 0.0466,0.11966 -0.1377,0.23239 -0.25195,0.29101 -0.20548,0.10541 -0.4807,-0.0471 -0.7168,-0.0684 0.049,0.29682 0.0449,0.72529 0.0547,1.10743 0.24425,-0.0791 0.54859,-0.0674 0.88476,0.0742 0.008,-0.0509 0.0173,-0.10149 0.0254,-0.15235 v -0.004 c -1.1e-4,-0.11455 -0.005,-0.22926 -0.004,-0.34375 0.002,-0.14513 0.009,-0.29046 0.0137,-0.43555 0.0103,-0.26832 0.0529,-0.53473 0.10937,-0.79688 0.01,-0.0453 0.0165,-0.0907 0.0312,-0.13476 0.004,-0.0114 0.005,-0.0267 0.008,-0.041 z m 1.20313,0.002 c -0.004,0.0181 -0.01,0.0334 -0.0137,0.0527 -0.003,0.0117 -0.005,0.0234 -0.008,0.0352 0.36883,0.12633 0.7309,0.27458 1.09766,0.40821 -0.0969,-0.15854 -0.19402,-0.32399 -0.28906,-0.47461 -0.0207,-0.008 -0.0418,-0.0139 -0.0625,-0.0215 z m 0.78711,0.0215 c 0.42085,0.15727 0.83236,0.34505 1.2539,0.5 -0.008,0.0308 -0.0156,0.061 -0.0234,0.0918 10e-4,-0.0111 0.004,-0.0211 0.006,-0.0312 -0.002,0.006 -0.005,0.0137 -0.006,0.0176 -0.005,0.0236 -0.0105,0.0466 -0.0156,0.0703 0.005,-0.0171 0.011,-0.0345 0.0156,-0.0527 -0.006,0.0541 -0.0106,0.11373 -0.0332,0.13672 0.005,-0.0282 0.0116,-0.056 0.0176,-0.084 -0.009,0.0323 -0.0181,0.0632 -0.0273,0.0918 0.004,-10e-4 0.007,-0.003 0.01,-0.006 -0.0179,0.0954 -0.0317,0.19188 -0.0351,0.28906 -0.0246,0.66028 -0.005,0.003 -0.008,0.73438 -4.1e-4,0.11307 -0.003,0.20382 -0.004,0.30273 0.12466,0.0837 0.24755,0.17178 0.36523,0.26563 0.11709,-0.0456 0.23391,-0.0669 0.34766,-0.0645 0.5784,0.0122 1.0532,0.62484 0.80859,1.625 0.0124,-10e-4 0.0247,-0.006 0.0371,-0.006 0.19917,0 0.39575,0.13656 0.50586,0.40039 0.43108,0.0255 0.86153,0.051 1.28516,0.1289 0.0658,0.0121 0.0455,0.12471 0.0625,0.18946 0.0224,0.0858 0.0392,0.17445 0.0547,0.26172 0.006,0.0359 0.007,0.0711 0.0117,0.10742 0.0138,0.11102 0.0226,0.17329 0.0332,0.24023 v -5.22656 l -4.67578,-0.004 c 0.005,0.007 0.009,0.0139 0.0137,0.0215 z m -2.25391,0.11328 c -4.4e-4,0.009 5.6e-4,0.0182 0,0.0273 l 0.10352,0.006 c -0.0406,-0.0145 -0.0652,-0.0199 -0.10352,-0.0332 z m -0.45508,0.66015 c -0.002,0.0195 -0.004,0.0391 -0.006,0.0586 10e-4,0.002 0.003,0.004 0.004,0.006 0.0178,-0.0213 0.035,-0.0431 0.0527,-0.0645 -0.0169,-1.1e-4 -0.0339,-5e-5 -0.0508,0 z m 7.3711,5.50782 c -0.045,0.17515 -0.10236,0.34699 -0.16797,0.51562 -0.001,0.007 -0.003,0.0143 -0.004,0.0215 -0.0281,0.15475 -0.0564,0.30804 -0.084,0.46289 -0.0427,0.23938 -0.0848,0.47915 -0.12695,0.71875 0.13017,0.10911 0.26127,0.21681 0.35351,0.35742 0.0154,0.0234 0.0244,0.0499 0.0293,0.0781 z m -9.38086,1.01758 c -0.14506,0.0594 -0.0722,0.0709 0.0664,0.0742 -0.0258,-0.0268 -0.0447,-0.0508 -0.0664,-0.0742 z m 9.38086,1.23242 c -0.006,0.0383 -0.0168,0.0762 -0.0312,0.10937 -0.10224,0.23387 -0.22595,0.37983 -0.36914,0.45703 0.0127,0.0464 0.0262,0.092 0.0391,0.13868 0.0389,0.13441 0.0775,0.26974 0.11719,0.40429 0.0428,0.14488 0.0905,0.28801 0.13086,0.4336 0.0386,0.1393 0.0767,0.27983 0.11328,0.41992 z m -0.36133,12.77929 c -0.0214,10e-4 -0.0393,0.01 -0.0527,0.0274 0.009,0.0593 0.0198,0.1185 0.0293,0.17773 0.0454,0.34878 0.0507,0.40291 0.0977,0.73438 0.002,0.0111 0.004,0.0221 0.006,0.0332 0.004,0.005 0.008,0.009 0.0117,0.0137 0.093,-0.0619 0.18579,-0.12346 0.26953,-0.18359 v -0.7168 c -0.0322,-0.005 -0.0653,-0.009 -0.10157,-0.0137 -0.0794,-0.009 -0.18731,-0.0769 -0.25976,-0.0723 z m -0.2832,0.53711 c -0.003,0.007 -0.005,0.0142 -0.008,0.0215 0.0796,0.0803 0.20234,0.20572 0.36328,0.40429 -0.0919,-0.20062 -0.094,-0.20201 -0.1875,-0.30468 -0.10847,-0.0784 -0.12725,-0.092 -0.16796,-0.1211 z m 0.36328,0.44336 c 6.3e-4,0.005 -8.5e-4,0.009 0.002,0.0137 0.001,-8.1e-4 0.003,8.5e-4 0.004,-0.002 v -0.002 c -0.002,-0.004 -0.004,-0.006 -0.006,-0.01 z m 0.28125,0.0586 c -0.0597,0.12775 -0.10263,0.24047 -0.13477,0.34179 0.0536,0.26169 0.0204,0.40079 -0.084,0.43946 -0.0145,0.37287 0.14581,0.35694 -0.47852,0.27343 -0.42199,-0.0565 -0.55999,-0.16372 -0.53125,-0.30078 v -0.002 c -0.0156,-0.0213 -0.0281,-0.063 -0.043,-0.0937 -0.0171,0.0618 -0.0345,0.12403 -0.0527,0.18555 -0.0315,0.11149 -0.0645,0.22406 -0.0937,0.33593 -0.0771,0.27969 -0.1386,0.56539 -0.27149,0.82618 v 0.002 c -0.49329,0.96742 -1.22565,1.20468 -1.69335,0.94336 -0.003,0.17089 -0.007,0.32037 -0.008,0.70898 -0.003,1.01785 -0.8854,1.15426 -1.12695,0.41602 -0.045,-0.0104 -0.0897,-0.0199 -0.13086,-0.0391 0.005,0.0482 0.009,0.0963 0.0137,0.14453 0.0143,0.14343 0.0303,0.28493 0.0488,0.42773 0.28834,-0.11263 0.48911,0.19452 0.18359,0.5 -0.074,0.0741 -0.0833,0.0957 -0.21289,0.14063 -0.0434,0.0164 -0.0937,0.0327 -0.13672,0.0176 -0.0945,-0.0355 -0.17848,-0.0965 -0.25195,-0.16601 -0.0596,-0.0563 -0.0874,-0.31384 -0.0937,-0.35156 -10e-4,-0.01 -0.005,-0.0195 -0.006,-0.0293 -0.007,0.003 -0.0129,0.009 -0.0195,0.0117 -0.0521,0.0586 -0.10417,0.11912 -0.15625,0.17773 -0.0459,0.0518 -0.0871,0.10592 -0.13672,0.1543 -0.10953,0.10658 -0.22521,0.20767 -0.33984,0.30859 -0.097,0.0856 -0.17504,0.15031 -0.25195,0.21289 -0.0113,0.0519 -0.0209,0.1041 -0.0391,0.1543 -0.0122,0.0336 -0.0281,0.0675 -0.0391,0.10156 -0.002,0.005 -0.004,0.008 -0.006,0.0137 -10e-4,0.0152 -0.002,0.0305 -0.004,0.0527 0.0387,0.0562 0.0513,0.14664 0.0137,0.26172 -0.0242,0.074 -0.0532,0.1467 -0.082,0.21875 h 6.16407 z m -1.22657,0.49023 c -6.4e-4,0.004 8.6e-4,0.008 -0.002,0.0117 0.025,0.0362 0.061,0.0895 0.0762,0.11133 10e-4,-0.001 0.003,-0.002 0.004,-0.004 -0.0227,-0.0341 -0.0516,-0.0787 -0.0781,-0.11914 z m 0.13086,0.20313 c 0.002,0.003 0.012,0.0172 0.0137,0.0195 -0.004,-0.006 -0.007,-0.0119 -0.0117,-0.0195 z m -4.30664,3.73632 c -4.9e-4,0.003 10e-4,0.005 -0.002,0.008 0.003,-4e-4 0.005,-0.002 0.008,-0.002 z m -1.86328,0.25977 c -0.005,0.007 -0.0124,0.0158 -0.0156,0.0215 0.005,-0.007 0.0102,-0.0134 0.0156,-0.0215 z m 2.48633,0.0723 c -0.009,0.003 -0.0159,0.008 -0.0234,0.0137 -0.008,0.006 -0.023,0.0267 -0.0254,0.0332 h 0.002 c 0.0184,-0.0122 0.0318,-0.0299 0.0469,-0.0469 z m -1.91406,1.6289 c -0.003,0.001 -0.007,0.003 -0.01,0.004 h 0.008 c 0,-10e-4 -10e-4,-0.003 0.002,-0.004 z" />
    </clipPath>
    <clipPath
       clipPathUnits="userSpaceOnUse"
       id="clipPath13329">
      <path
         id="path13331"
         style="fill:#ff0000;fill-opacity:1;fill-rule:nonzero;stroke:none;stroke-width:0.264583"
         d="m 82.855924,93.99633 -19.891808,5.29e-4 v 4.011642 c 0.242466,-0.208539 0.529994,-0.318651 0.825788,-0.324012 0.188727,-0.0034 0.380712,0.03647 0.566375,0.119373 -0.01125,-0.02694 -0.01529,-0.05848 -0.01085,-0.09922 0.0042,-0.03871 0.04077,-0.06696 0.06098,-0.100251 0.02111,-0.03478 0.0375,-0.05009 0.05064,-0.05168 0.02236,-0.0027 0.03464,0.03527 0.04341,0.08578 0.04891,-0.02671 0.09788,-0.05329 0.146762,-0.0801 0.03172,-0.01738 0.04797,-0.02506 0.05323,-0.02532 0.01834,-7.94e-4 -0.09484,0.08341 -0.192236,0.156578 0.0013,0.01003 0.0024,0.01979 0.0036,0.02997 0.03273,-0.01889 0.06547,-0.03794 0.09818,-0.05684 -5.29e-4,-5.29e-4 -5.29e-4,-0.0016 -0.0011,-0.0021 5.29e-4,5.29e-4 0.0016,0.0011 0.0021,0.0016 0.02344,-0.01355 0.04677,-0.02724 0.07028,-0.04083 -0.0038,-0.0092 -0.0073,-0.01871 -0.01085,-0.02791 7.94e-4,0.0016 0.0019,0.0041 0.0026,0.0052 0.0047,0.0083 0.0095,0.01672 0.01447,0.02479 0.02336,0.03784 0.04815,0.07488 0.0708,0.113172 0.0011,0.004 0.0013,0.0078 0.0031,0.01138 0.0013,0.0024 0.0038,0.004 0.0057,0.0057 0.0049,0.0043 0.0099,0.0083 0.01498,0.01241 0.02188,-0.0016 0.04173,-0.0039 0.05788,-0.0078 -0.03525,-0.02685 -0.07006,-0.05402 -0.105936,-0.0801 -0.0013,1.03e-4 -0.0028,5.29e-4 -0.0041,5.29e-4 7.94e-4,-5.29e-4 0.0016,-0.0021 0.0026,-0.0016 5.29e-4,2.65e-4 0.0011,7.94e-4 0.0016,0.0011 0.01262,-7.94e-4 0.02511,-0.0016 0.03772,-0.0026 0.01995,-0.0011 0.03996,-0.0019 0.05994,-0.0026 -0.0011,-7.94e-4 -0.0016,-0.0013 -0.0026,-0.0021 -0.0072,-0.0055 -0.0136,-0.0113 -0.02119,-0.01497 -0.01254,2.65e-4 -0.01,0.0036 -0.01498,-0.0041 0.0056,5.29e-4 0.01045,0.0019 0.01498,0.0041 0.0029,-8.5e-5 0.0061,9e-5 0.01085,5.29e-4 0.03895,0.003 0.0788,0.0038 0.116787,0.01394 h 5.29e-4 c 0.01035,-1.43e-4 0.02066,-5.29e-4 0.03101,-5.29e-4 -0.03855,-0.03157 -0.04284,-0.06067 0.04393,-0.08268 0.01553,-0.0039 0.03099,-0.0075 0.04651,-0.01138 0.0145,-0.0011 0.02887,-0.0027 0.04341,-0.0031 0.01333,-5.3e-4 0.02646,2.51e-4 0.03979,5.29e-4 0.05635,5.29e-4 0.113099,7.93e-4 0.1695,-0.0021 0.01045,-0.01521 0.0302,-0.0113 0.06563,-0.0047 0.03622,-0.0075 0.0021,-3.1e-5 0.05168,-0.01241 0.0473,-0.01183 0.09495,-0.02236 0.143142,-0.02997 0.01333,-0.0016 0.02693,-0.0039 0.04031,-0.0052 0.01744,-0.0016 0.03472,-0.0026 0.05219,-0.0026 0.07572,-1.48e-4 0.151601,0.01463 0.223758,0.03617 0.03098,0.0094 0.06225,0.01834 0.09302,0.02842 0.0469,0.0154 0.0561,0.03349 0.106452,0.02429 0.211389,-0.03855 0.28334,0.124325 0.188619,0.222727 0.02249,0.02574 0.04357,0.0524 0.06305,0.0801 0.0078,0.01106 0.01386,0.02344 0.02066,0.03514 0.0099,0.01693 0.01791,0.03318 0.02429,0.04909 0.171979,0.108553 0.07801,0.31823 -0.166397,0.243398 -0.08754,-0.02681 -0.173437,-0.05805 -0.2589,-0.09095 -0.03397,0.01431 -0.07781,0.02045 -0.130741,0.01394 0.03432,0.06485 0.01688,0.130746 -0.03617,0.16433 0.08832,0.167682 -0.006,0.285279 -0.120922,0.252698 -0.01741,0.03691 -0.05062,0.06134 -0.09353,0.06511 0.01217,0.0136 0.02344,0.02784 0.03462,0.04237 0.02003,0.02604 0.04012,0.05229 0.05839,0.07958 0.01024,0.01529 0.01918,0.03155 0.02739,0.04806 0.03682,0.07454 0.03074,0.05733 0.04289,0.10594 0.07019,0.28073 -0.213514,0.35157 -0.283703,0.07079 -0.0019,-0.0078 -0.0024,-0.01595 -0.0057,-0.02326 -0.0038,-0.0083 -0.01029,-0.01492 -0.01498,-0.02273 -0.0068,-0.01106 -0.01222,-0.02291 -0.01963,-0.03359 -0.0077,-0.01109 -0.05744,-0.07415 -0.07028,-0.08733 -0.01061,-0.0109 -0.02265,-0.01995 -0.03411,-0.02997 -0.01442,-0.01005 -0.0182,-0.01278 -0.02326,-0.01654 0.150527,0.306189 0.265613,0.678486 0.328663,1.119827 0.0055,0.03859 0.02676,0.153351 0.01654,0.115751 -0.07996,-0.293979 -0.03477,-0.584801 -0.353468,-0.799945 -0.007,0.01048 -0.01484,0.02154 -0.02532,0.03411 -0.01543,0.01847 -0.03163,0.0363 -0.04909,0.05271 0.01712,0.03773 0.03478,0.07534 0.05271,0.112655 0.14827,-0.0364 0.286182,0.119382 0.180351,0.37052 -0.0032,0.0076 -0.03204,0.07459 -0.01498,0.03152 -0.02964,-0.245536 0.0047,-0.198173 -0.171567,-0.04392 0.01199,0.02666 0.02098,0.04932 0.02946,0.09095 0.0045,0.02183 0.0092,0.04403 0.0067,0.06615 -0.0032,0.02841 -0.01228,0.05614 -0.02016,0.08372 0.0084,0.019 -0.02461,0.0385 -0.03565,0.0579 -0.04805,0.0841 -0.07845,0.0935 -0.100253,0.0636 -0.05778,0.0387 -0.08673,0.0234 -0.152964,-0.0873 0.0031,0.0222 0.0069,0.0478 0.01188,0.0842 0.0066,0.0481 0.0122,0.0966 0.02222,0.14418 0.01667,0.0794 0.03859,0.15788 0.05788,0.23668 0.05331,0.18977 0.04481,0.1676 0.111622,0.36587 0.01252,0.0372 0.02561,0.0745 0.03979,0.1111 0.01974,0.0699 0.05772,0.13162 0.08475,0.19844 0.0047,0.0117 0.009,0.0239 0.01344,0.0357 0.06291,0.0102 0.124016,0.0236 0.182936,0.0408 0.198358,-0.15272 0.514641,-0.4104 0.723469,-0.68109 0.07819,-0.22394 0.06399,-0.48474 0.189653,-0.685748 0.117414,-0.187802 -0.02901,0.466228 -0.159163,0.645438 -0.0097,0.0134 -0.02016,0.0269 -0.03049,0.0403 -0.0021,0.006 -0.0043,0.0123 -0.0067,0.0186 -0.03284,0.0871 -0.104412,0.15392 -0.15658,0.23099 -0.15757,0.23281 -0.292542,0.38925 -0.409795,0.48421 0.865648,0.36516 1.172245,1.54874 0.162267,2.79156 -0.0019,0.0233 -0.004,0.0466 -0.0062,0.0703 0.05449,-0.007 0.108667,-0.0127 0.162264,-0.0134 0.566393,-0.005 1.07265,0.34789 1.288809,0.98805 0.222356,-0.13403 0.459827,-0.20205 0.694531,-0.20618 0.924621,-0.0163 1.802276,0.95154 1.507919,2.71766 -0.03887,0.23324 -0.03825,0.23019 -0.07855,0.4563 0.30621,-0.23622 0.626827,-0.35282 0.929659,-0.36277 0.564086,-0.0186 1.065434,0.32736 1.294495,0.93224 0.24543,-0.17979 0.518073,-0.2714 0.789098,-0.2775 0.892858,-0.0201 1.768036,0.8863 1.594218,2.6169 -0.01865,0.18583 -0.04152,0.3733 -0.07906,0.55707 0.0026,-1.7e-4 0.0052,-0.001 0.0078,-0.001 0.193196,-0.006 0.352563,0.20546 0.248563,0.56947 -0.0055,0.0193 -0.01132,0.0385 -0.01654,0.0579 -0.01352,0.05 -0.02331,0.10077 -0.03824,0.15038 -0.0099,0.0637 -0.04407,0.11913 -0.06356,0.17932 -0.0081,0.025 -0.01347,0.051 -0.02016,0.0765 -0.0059,0.024 -0.01117,0.0479 -0.01757,0.0718 -0.02199,0.0816 -0.04861,0.16195 -0.06976,0.24391 -0.02622,0.10146 -0.04899,0.20425 -0.07132,0.30696 h 8.983433 z m -17.723982,6.13348 c 0.03132,-0.021 0.07148,-0.0574 0.130741,-0.10232 0.0016,-0.007 0.0033,-0.0126 0.0052,-0.0191 -2.65e-4,-8e-4 -5.3e-4,-0.001 -0.0011,-0.002 -0.04488,-0.07323 -0.07641,-0.125405 -0.103351,-0.167947 -0.02655,0.0199 -0.05487,0.04039 -0.08785,0.06201 -2.64e-4,2.54e-4 -5.29e-4,1.51e-4 -0.0011,5.3e-4 0.0158,0.09224 0.02982,0.191177 0.05736,0.228927 z m 0.287322,-2.559023 c -0.0031,2.65e-4 -0.0062,7.94e-4 -0.0093,0.0016 -0.0081,0.0021 -0.05493,0.02665 0.01085,-0.0016 -5.29e-4,6.1e-5 -0.0011,-5.3e-5 -0.0016,0 z m 0.494543,3.434413 c 0.03348,-0.0371 -0.06991,0.0713 -0.104905,0.10697 -0.15812,0.0931 -0.18951,0.11233 -0.267165,0.15865 0.02294,0.007 0.04543,0.0153 0.0677,0.0238 0.107561,-0.0893 0.209987,-0.18484 0.304374,-0.28939 z m -2.453598,9.26455 c 0.58433,0.51256 1.323192,1.77223 1.828829,2.03192 0.06671,-0.36866 0.132959,-0.73758 0.192236,-1.10743 0.117208,-0.73137 0.01746,-0.16602 0.08682,-0.58859 -0.315624,-0.0991 -0.930148,-0.13905 -2.107883,-0.3359 z m -0.496093,1.68207 v 1.28519 h 2.146638 c 0.0092,-0.0429 0.01542,-0.0776 0.02791,-0.13074 h -5.29e-4 c -0.0013,-7.9e-4 -2.65e-4,-0.002 0.0016,-0.004 0.0019,-0.008 0.0032,-0.0155 0.0052,-0.0238 0.01103,-0.0537 0.02238,-0.10737 0.03255,-0.16123 0.01807,-0.0956 0.03476,-0.19111 0.05219,-0.28681 0.01484,-0.0823 0.02953,-0.16467 0.04444,-0.24701 -1.229968,-0.24192 -1.930095,-0.32367 -2.309937,-0.4315 z m 10.045898,0.32401 c 0.02721,0.0466 0.05345,0.094 0.07906,0.14211 0.014,-0.0299 0.02762,-0.06 0.04289,-0.0894 0.0027,-0.005 0.0063,-0.01 0.0093,-0.015 -0.04339,-0.0134 -0.08702,-0.0258 -0.131257,-0.0377 z" />
    </clipPath>
  </defs>
  <g
     inkscape:label="Warstwa 1"
     inkscape:groupmode="layer"
     id="layer1"
     transform="translate(-10.292943,-140.61975)">
    <g
       id="g14550"
       transform="matrix(0.74838987,0,0,0.74838987,-29.729031,70.891142)">
      <path
         style="fill:#ffffff;fill-opacity:1;stroke:#ffffff;stroke-width:0.081;stroke-miterlimit:4;stroke-dasharray:none;stroke-opacity:1"
         id="path3419-8-8-3-4-4"
         sodipodi:type="arc"
         sodipodi:cx="79.110184"
         sodipodi:cy="108.47917"
         sodipodi:rx="0.5635646"
         sodipodi:ry="0.55881369"
         sodipodi:start="0"
         sodipodi:end="6.2705142"
         sodipodi:arc-type="slice"
         d="m 79.673748,108.47917 a 0.5635646,0.55881369 0 0 1 -0.561779,0.55881 0.5635646,0.55881369 0 0 1 -0.565339,-0.55527 0.5635646,0.55881369 0 0 1 0.558198,-0.56233 0.5635646,0.55881369 0 0 1 0.568875,0.55171 l -0.563519,0.007 z" />
      <path
         style="fill:#ffffff;fill-opacity:1;stroke:#ffffff;stroke-width:0.081;stroke-miterlimit:4;stroke-dasharray:none;stroke-opacity:1"
         id="path3419-8-8-3-4-79"
         sodipodi:type="arc"
         sodipodi:cx="80.168518"
         sodipodi:cy="105.96562"
         sodipodi:rx="0.5635646"
         sodipodi:ry="0.55881369"
         sodipodi:start="0"
         sodipodi:end="6.2705142"
         sodipodi:arc-type="slice"
         d="m 80.732083,105.96562 a 0.5635646,0.55881369 0 0 1 -0.56178,0.55881 0.5635646,0.55881369 0 0 1 -0.565338,-0.55527 0.5635646,0.55881369 0 0 1 0.558197,-0.56233 0.5635646,0.55881369 0 0 1 0.568875,0.55171 l -0.563519,0.007 z" />
      <path
         style="fill:#ffffff;fill-opacity:1;stroke:#ffffff;stroke-width:0.081;stroke-miterlimit:4;stroke-dasharray:none;stroke-opacity:1"
         id="path3419-8-8-3-4-74"
         sodipodi:type="arc"
         sodipodi:cx="77.969505"
         sodipodi:cy="104.75643"
         sodipodi:rx="0.5635646"
         sodipodi:ry="0.55881369"
         sodipodi:start="0"
         sodipodi:end="6.2705142"
         sodipodi:arc-type="slice"
         d="m 78.53307,104.75643 a 0.5635646,0.55881369 0 0 1 -0.561779,0.55881 0.5635646,0.55881369 0 0 1 -0.565339,-0.55527 0.5635646,0.55881369 0 0 1 0.558198,-0.56233 0.5635646,0.55881369 0 0 1 0.568875,0.55171 l -0.56352,0.007 z" />
      <path
         style="fill:#ffffff;fill-opacity:1;stroke:#ffffff;stroke-width:0.081;stroke-miterlimit:4;stroke-dasharray:none;stroke-opacity:1"
         id="path3419-8-8-3-4-7-058"
         sodipodi:type="arc"
         sodipodi:cx="77.390381"
         sodipodi:cy="107.28854"
         sodipodi:rx="0.37850338"
         sodipodi:ry="0.37531257"
         sodipodi:start="0"
         sodipodi:end="6.2705142"
         sodipodi:arc-type="slice"
         d="m 77.768884,107.28854 a 0.37850338,0.37531257 0 0 1 -0.377304,0.37531 0.37850338,0.37531257 0 0 1 -0.379695,-0.37293 0.37850338,0.37531257 0 0 1 0.374899,-0.37767 0.37850338,0.37531257 0 0 1 0.38207,0.37054 l -0.378473,0.005 z" />
      <path
         style="fill:#ffffff;fill-opacity:1;stroke:#ffffff;stroke-width:0.081;stroke-miterlimit:4;stroke-dasharray:none;stroke-opacity:1"
         id="path3419-8-8-3-4-7-05"
         sodipodi:type="arc"
         sodipodi:cx="76.680428"
         sodipodi:cy="103.06971"
         sodipodi:rx="0.46881959"
         sodipodi:ry="0.46486741"
         sodipodi:start="0"
         sodipodi:end="6.2705142"
         sodipodi:arc-type="slice"
         d="m 77.149247,103.06971 a 0.46881959,0.46486741 0 0 1 -0.467334,0.46486 0.46881959,0.46486741 0 0 1 -0.470296,-0.46192 0.46881959,0.46486741 0 0 1 0.464355,-0.46779 0.46881959,0.46486741 0 0 1 0.473238,0.45896 l -0.468782,0.006 z" />
      <path
         style="fill:#ffffff;fill-opacity:1;stroke:#ffffff;stroke-width:0.081;stroke-miterlimit:4;stroke-dasharray:none;stroke-opacity:1"
         id="path3419-8-8-3-4-7-0"
         sodipodi:type="arc"
         sodipodi:cx="73.983597"
         sodipodi:cy="99.29628"
         sodipodi:rx="0.37850338"
         sodipodi:ry="0.37531257"
         sodipodi:start="0"
         sodipodi:end="6.2705142"
         sodipodi:arc-type="slice"
         d="m 74.3621,99.29628 a 0.37850338,0.37531257 0 0 1 -0.377304,0.375311 0.37850338,0.37531257 0 0 1 -0.379695,-0.372933 0.37850338,0.37531257 0 0 1 0.374899,-0.377674 0.37850338,0.37531257 0 0 1 0.38207,0.37054 l -0.378473,0.0048 z" />
      <path
         style="fill:#ffffff;fill-opacity:1;stroke:#ffffff;stroke-width:0.081;stroke-miterlimit:4;stroke-dasharray:none;stroke-opacity:1"
         id="path3419-8-8-3-4-7-6"
         sodipodi:type="arc"
         sodipodi:cx="76.46434"
         sodipodi:cy="101.00468"
         sodipodi:rx="0.37850338"
         sodipodi:ry="0.37531257"
         sodipodi:start="0"
         sodipodi:end="6.2705142"
         sodipodi:arc-type="slice"
         d="m 76.842844,101.00468 a 0.37850338,0.37531257 0 0 1 -0.377305,0.37531 0.37850338,0.37531257 0 0 1 -0.379695,-0.37294 0.37850338,0.37531257 0 0 1 0.374899,-0.37767 0.37850338,0.37531257 0 0 1 0.38207,0.37054 l -0.378473,0.005 z" />
      <path
         style="fill:#ffffff;fill-opacity:1;stroke:#ffffff;stroke-width:0.081;stroke-miterlimit:4;stroke-dasharray:none;stroke-opacity:1"
         id="path3419-8-8-3-4-7"
         sodipodi:type="arc"
         sodipodi:cx="72.958694"
         sodipodi:cy="96.905281"
         sodipodi:rx="0.37850338"
         sodipodi:ry="0.37531257"
         sodipodi:start="0"
         sodipodi:end="6.2705142"
         sodipodi:arc-type="slice"
         d="m 73.337198,96.905281 a 0.37850338,0.37531257 0 0 1 -0.377305,0.375311 0.37850338,0.37531257 0 0 1 -0.379694,-0.372933 0.37850338,0.37531257 0 0 1 0.374898,-0.377674 0.37850338,0.37531257 0 0 1 0.38207,0.370541 l -0.378473,0.0048 z" />
      <path
         style="fill:#ffffff;fill-opacity:1;stroke:#ffffff;stroke-width:0.081;stroke-miterlimit:4;stroke-dasharray:none;stroke-opacity:1"
         id="path3419-8-8-3-4"
         sodipodi:type="arc"
         sodipodi:cx="70.643578"
         sodipodi:cy="97.103729"
         sodipodi:rx="0.5635646"
         sodipodi:ry="0.55881369"
         sodipodi:start="0"
         sodipodi:end="6.2705142"
         sodipodi:arc-type="slice"
         d="m 71.207142,97.103729 a 0.5635646,0.55881369 0 0 1 -0.561779,0.558811 0.5635646,0.55881369 0 0 1 -0.565339,-0.55527 0.5635646,0.55881369 0 0 1 0.558198,-0.562329 0.5635646,0.55881369 0 0 1 0.568875,0.551708 l -0.563519,0.0071 z" />
      <g
         id="g13027">
        <path
           id="path4712-8"
           style="fill:none;stroke:#ffffff;stroke-width:3.11811;stroke-linecap:butt;stroke-linejoin:miter;stroke-miterlimit:4;stroke-dasharray:none;stroke-opacity:1"
           transform="scale(0.26458333)"
           d="m 308.49023,368.75586 c -0.13374,8.8e-4 -0.26696,0.006 -0.40039,0.0117 -0.0273,0.0932 -0.10368,0.14388 -0.18945,0.13086 -0.0771,0.022 -0.1627,-0.007 -0.2168,-0.10742 -0.35812,0.0265 -0.71543,0.0666 -1.07031,0.125 -2.83835,0.46737 -5.49651,1.96042 -7.37305,4.14062 -2.32465,2.70083 -3.39536,6.43888 -2.85351,9.96094 0.54185,3.52206 2.68587,6.76342 5.71484,8.64062 3.10302,1.92309 7.07717,2.37307 10.53125,1.19141 0.54939,-0.18795 1.07771,-0.42591 1.58985,-0.69531 v -0.0762 c 0,-0.004 -0.003,-0.009 0,-0.0117 0.017,-0.0189 0.0338,-0.0338 0.0508,-0.0527 0.0517,-0.007 0.10107,0.0116 0.15039,0.0234 -0.0147,-3.9e-4 -0.0117,0.006 -0.01,0.0156 0.0565,-0.0309 0.11389,-0.0601 0.16992,-0.0918 0.0118,-0.0645 0.0242,-0.12877 0.0352,-0.19336 0.0139,-0.0272 0.0275,-0.10906 0.043,-0.082 0.004,0.007 0.007,0.0169 0.01,0.0273 -0.0354,-0.63625 0.0143,-1.27346 0.11523,-1.9043 0.061,-0.38137 0.19477,-0.66318 0.36133,-0.85156 0.0507,-0.43963 0.10259,-0.87964 0.14258,-1.32031 0.0707,-0.7794 0.46743,-1.15601 0.85742,-1.16602 0.17214,-0.004 0.34149,0.0671 0.48242,0.20313 0.0254,-0.0323 0.0509,-0.0646 0.0781,-0.0977 0.0336,-0.0408 0.12828,-0.16474 0.10938,-0.11523 -0.12175,0.31819 -0.14571,0.25139 -0.15234,0.23633 -10e-5,7.2e-4 1.1e-4,0.009 0,0.01 0.0767,0.0832 0.14206,0.18843 0.19336,0.31445 0.0101,0.004 0.0215,0.006 0.0312,0.01 0.23137,-0.22769 0.57522,-0.75668 0.77735,-0.75977 0.0821,-10e-4 0.13916,0.0865 0.15625,0.31641 0.007,0.0922 0.0419,0.18544 0.0215,0.27539 -0.0624,0.27447 -0.21602,0.48813 -0.38086,0.69922 0.0664,0.0332 0.12952,0.0761 0.18555,0.13281 0.0715,-0.17708 0.15988,-0.36851 0.32422,-0.73828 0.0732,-0.16474 0.15664,-0.30307 0.24609,-0.41797 0.0151,-0.14243 0.0381,-0.28388 0.0566,-0.42578 -0.14195,-0.3028 -0.24949,-0.61982 -0.32812,-0.94531 -0.1494,-0.61856 0.0879,-0.98891 0.39648,-1.02539 -0.0679,-0.47129 -0.112,-0.94491 -0.10742,-1.42188 -0.3026,0.057 -0.65271,-0.19644 -0.72461,-0.80078 -0.1114,-0.93649 -0.29113,-1.86445 -0.48437,-2.78711 -0.0881,-0.42061 -0.0598,-0.38546 -0.13282,-0.52343 0.007,0.0179 -0.0461,-0.0635 -0.17187,-0.23243 -0.25799,-0.34655 -0.0797,-0.39052 0.21094,-0.35156 -0.83468,-1.71996 -1.64506,-3.46661 -1.99024,-5.35547 -0.10294,-0.0435 -0.20726,-0.11439 -0.30469,-0.19531 -0.19246,0.0134 -0.41445,-0.0374 -0.64453,-0.12109 0.002,0.002 0.004,0.004 0.006,0.006 0.41689,0.25313 0.2461,0.74575 0.28125,1.10742 0.0133,0.13697 0.16347,0.3571 0.22266,0.47461 0.0162,0.0283 0.07,0.11088 0.0488,0.0859 -0.0477,-0.0564 -0.0742,-0.13209 -0.12891,-0.18164 -0.0299,-0.0272 -0.12802,-0.0733 -0.13281,-0.0605 6.6e-4,0.002 0.004,0.006 0.006,0.008 0.17583,0.22339 0.43284,0.38261 0.57812,0.62695 0.11133,0.18736 0.0519,0.2734 0.0117,0.31055 0.006,0.007 0.0129,0.0152 0.0195,0.0234 0.007,-6.5e-4 0.01,-10e-4 0.0195,-0.002 0.019,0.03 0.0804,0.11593 0.0566,0.0898 -0.0315,-0.0345 -0.0559,-0.0625 -0.0762,-0.0879 -0.022,0.002 -0.042,5.1e-4 -0.0469,0 0.001,-0.003 0.0131,-0.0103 0.0273,-0.0234 -0.14713,-0.19161 0.006,-0.097 -0.55859,-0.10742 -1.18034,-0.0215 1.78116,0.90084 0.60742,1.02734 -0.20533,0.0221 -0.41458,0.11531 -0.61523,0.0664 -0.31599,-0.077 -0.40243,-0.33977 -0.52149,-0.57618 l -0.0781,-0.34179 c -0.0719,-0.0573 -0.139,-0.12221 -0.20508,-0.18555 -0.039,-0.0374 -0.0536,-0.0935 -0.0801,-0.14062 -0.18822,-0.3819 -0.29386,-0.64634 -0.34375,-1.08789 -0.0263,-0.23267 0.0408,-0.1397 0.1875,-0.0781 -0.004,-0.0763 -0.11304,-0.10335 -0.16992,-0.1543 -0.2137,-0.26712 -0.2086,-0.21756 -0.31836,-0.45703 -0.0698,-0.15225 -0.10879,-0.23531 -0.13281,-0.28711 -0.0411,-0.0327 -0.082,-0.065 -0.12305,-0.0977 -0.34111,-0.2714 -0.67691,-0.5543 -1.10547,-0.67774 -0.33217,-0.11138 -0.66514,-0.20181 -0.98633,-0.3457 -0.62983,-0.28216 -1.19465,-0.69446 -1.71679,-1.14063 -0.64508,-0.55121 -0.4421,-1.18731 0.0566,-1.21679 0.0378,-0.002 0.0782,8.3e-4 0.11914,0.006 -0.003,-0.002 -0.006,-0.005 -0.01,-0.008 -0.0789,-0.0564 -0.14908,-0.11373 -0.21289,-0.17187 -0.0638,-4.7e-4 -0.1276,-5.2e-4 -0.19141,0 z m 5.50196,2.66211 c -0.10802,0.18888 -0.18322,0.34586 -0.0469,0.28515 0.0858,-0.038 0.15737,-0.0922 0.22071,-0.1582 -0.0582,-0.0422 -0.11616,-0.0836 -0.17383,-0.12695 z m -1.31836,1.00195 c 0.0238,0.0422 0.052,0.0868 0.0684,0.0977 0.0155,0.0103 -0.01,-0.0366 -0.0137,-0.0547 -0.0182,-0.0145 -0.0365,-0.0285 -0.0547,-0.043 z m 4.09765,0.70313 c 0.30572,1.18189 0.79535,2.3057 1.32032,3.41211 -0.17515,-0.96275 -0.32704,-1.93693 -0.35352,-2.91407 -0.16565,-0.0839 -0.30136,-0.15176 -0.64648,-0.32421 -0.10775,-0.058 -0.2132,-0.11585 -0.32032,-0.17383 z m -3.10937,21.24609 c 0.003,4.1e-4 0.005,0.002 0.006,0.002 -0.001,-5e-5 -0.004,-0.002 -0.006,-0.002 z"
           clip-path="url(#clipPath12936)" />
      </g>
      <path
         style="fill:#ffffff;fill-opacity:1;stroke:#ffffff;stroke-width:0.1;stroke-miterlimit:4;stroke-dasharray:none;stroke-opacity:1"
         id="path3419-2-3"
         sodipodi:type="arc"
         sodipodi:cx="60.080791"
         sodipodi:cy="103.10615"
         sodipodi:rx="0.71284819"
         sodipodi:ry="0.70683885"
         sodipodi:start="0"
         sodipodi:end="6.2705142"
         sodipodi:arc-type="slice"
         d="m 60.79364,103.10615 a 0.71284819,0.70683885 0 0 1 -0.71059,0.70683 0.71284819,0.70683885 0 0 1 -0.715092,-0.70235 0.71284819,0.70683885 0 0 1 0.706059,-0.71129 0.71284819,0.70683885 0 0 1 0.719565,0.69785 l -0.712791,0.009 z" />
      <path
         style="fill:#ffffff;fill-opacity:1;stroke:#ffffff;stroke-width:0.181;stroke-miterlimit:4;stroke-dasharray:none;stroke-opacity:1"
         id="path3419-2-3-0"
         sodipodi:type="arc"
         sodipodi:cx="63.234859"
         sodipodi:cy="104.49551"
         sodipodi:rx="0.70454139"
         sodipodi:ry="0.69860202"
         sodipodi:start="0"
         sodipodi:end="6.2705142"
         sodipodi:arc-type="slice"
         d="m 63.939401,104.49551 a 0.70454139,0.69860202 0 0 1 -0.70231,0.69859 0.70454139,0.69860202 0 0 1 -0.706759,-0.69417 0.70454139,0.69860202 0 0 1 0.697832,-0.70299 0.70454139,0.69860202 0 0 1 0.71118,0.68971 l -0.704485,0.009 z" />
      <path
         style="fill:#ffffff;fill-opacity:1;stroke:#ffffff;stroke-width:0.281;stroke-miterlimit:4;stroke-dasharray:none;stroke-opacity:1"
         id="path3419-8-8-3-0-0-3"
         sodipodi:type="arc"
         sodipodi:cx="63.608139"
         sodipodi:cy="109.17023"
         sodipodi:rx="0.43029347"
         sodipodi:ry="0.42666605"
         sodipodi:start="0"
         sodipodi:end="6.2705142"
         sodipodi:arc-type="slice"
         d="m 64.038433,109.17023 a 0.43029347,0.42666605 0 0 1 -0.428931,0.42666 0.43029347,0.42666605 0 0 1 -0.431648,-0.42396 0.43029347,0.42666605 0 0 1 0.426196,-0.42935 0.43029347,0.42666605 0 0 1 0.434348,0.42124 l -0.430259,0.005 z" />
      <path
         style="fill:#ffffff;fill-opacity:1;stroke:#ffffff;stroke-width:0.281;stroke-miterlimit:4;stroke-dasharray:none;stroke-opacity:1"
         id="path3419-8-8-3-0-0-7"
         sodipodi:type="arc"
         sodipodi:cx="59.828819"
         sodipodi:cy="108.02827"
         sodipodi:rx="0.53065956"
         sodipodi:ry="0.52618605"
         sodipodi:start="0"
         sodipodi:end="6.2705142"
         sodipodi:arc-type="slice"
         d="m 60.359479,108.02827 a 0.53065956,0.52618605 0 0 1 -0.528979,0.52618 0.53065956,0.52618605 0 0 1 -0.53233,-0.52285 0.53065956,0.52618605 0 0 1 0.525606,-0.5295 0.53065956,0.52618605 0 0 1 0.53566,0.5195 l -0.530617,0.007 z" />
      <path
         style="fill:#ffffff;fill-opacity:1;stroke:#ffffff;stroke-width:0.281;stroke-miterlimit:4;stroke-dasharray:none;stroke-opacity:1"
         id="path3419-8-8-3-0-0"
         sodipodi:type="arc"
         sodipodi:cx="57.045303"
         sodipodi:cy="106.14124"
         sodipodi:rx="0.43029347"
         sodipodi:ry="0.42666605"
         sodipodi:start="0"
         sodipodi:end="6.2705142"
         sodipodi:arc-type="slice"
         d="m 57.475597,106.14124 a 0.43029347,0.42666605 0 0 1 -0.428931,0.42667 0.43029347,0.42666605 0 0 1 -0.431647,-0.42396 0.43029347,0.42666605 0 0 1 0.426195,-0.42935 0.43029347,0.42666605 0 0 1 0.434348,0.42124 l -0.430259,0.005 z" />
      <ellipse
         style="fill:#074985;fill-opacity:0;stroke:#ffffff;stroke-width:0.922;stroke-miterlimit:4;stroke-dasharray:none;stroke-opacity:1"
         id="path2479"
         ry="10.294881"
         rx="10.659303"
         cy="107.46996"
         cx="64.972725" />
      <g
         id="g13021"
         clip-path="url(#clipPath13329)">
        <path
           id="path2479-9"
           style="fill:#ff0000;fill-opacity:0;stroke:#ffffff;stroke-width:3.11672;stroke-miterlimit:4;stroke-dasharray:none;stroke-opacity:1"
           transform="scale(0.26458333)"
           d="m 275.56445,356.82227 a 36.032604,34.800715 0 0 0 -36.03125,34.80078 36.032604,34.800715 0 0 0 36.03125,34.80078 36.032604,34.800715 0 0 0 36.03321,-34.80078 36.032604,34.800715 0 0 0 -36.03321,-34.80078 z"
           clip-path="url(#clipPath12624)" />
      </g>
      <path
         style="fill:#ffffff;fill-opacity:1;stroke:#ffffff;stroke-width:0.1;stroke-miterlimit:4;stroke-dasharray:none;stroke-opacity:1"
         id="path3419"
         sodipodi:type="arc"
         sodipodi:cx="61.63541"
         sodipodi:cy="112.46642"
         sodipodi:rx="1.1018045"
         sodipodi:ry="1.0925162"
         sodipodi:start="0"
         sodipodi:end="6.2705142"
         sodipodi:arc-type="slice"
         d="m 62.737215,112.46642 a 1.1018045,1.0925162 0 0 1 -1.098314,1.09251 1.1018045,1.0925162 0 0 1 -1.105273,-1.08559 1.1018045,1.0925162 0 0 1 1.091312,-1.09938 1.1018045,1.0925162 0 0 1 1.112186,1.07862 l -1.101716,0.0138 z" />
      <path
         style="fill:#ffffff;fill-opacity:1;stroke:#ffffff;stroke-width:0.1;stroke-miterlimit:4;stroke-dasharray:none;stroke-opacity:1"
         id="path3419-8"
         sodipodi:type="arc"
         sodipodi:cx="68.254982"
         sodipodi:cy="101.36813"
         sodipodi:rx="1.0580891"
         sodipodi:ry="1.0491693"
         sodipodi:start="0"
         sodipodi:end="6.2705142"
         sodipodi:arc-type="slice"
         d="m 69.313071,101.36813 a 1.0580891,1.0491693 0 0 1 -1.054737,1.04917 1.0580891,1.0491693 0 0 1 -1.06142,-1.04252 1.0580891,1.0491693 0 0 1 1.048013,-1.05577 1.0580891,1.0491693 0 0 1 1.068059,1.03583 l -1.058004,0.0133 z" />
      <path
         style="fill:#ffffff;fill-opacity:1;stroke:#ffffff;stroke-width:0.2;stroke-miterlimit:4;stroke-dasharray:none;stroke-opacity:1"
         id="path3419-8-8"
         sodipodi:type="arc"
         sodipodi:cx="67.212898"
         sodipodi:cy="106.19683"
         sodipodi:rx="1.1018336"
         sodipodi:ry="1.092545"
         sodipodi:start="0"
         sodipodi:end="6.2705142"
         sodipodi:arc-type="slice"
         d="m 68.314732,106.19683 a 1.1018336,1.092545 0 0 1 -1.098343,1.09254 1.1018336,1.092545 0 0 1 -1.105302,-1.08562 1.1018336,1.092545 0 0 1 1.09134,-1.09941 1.1018336,1.092545 0 0 1 1.112216,1.07865 l -1.101745,0.0138 z" />
      <path
         style="fill:#ffffff;fill-opacity:1;stroke:#ffffff;stroke-width:0.081;stroke-miterlimit:4;stroke-dasharray:none;stroke-opacity:1"
         id="path3419-8-8-3"
         sodipodi:type="arc"
         sodipodi:cx="71.214127"
         sodipodi:cy="103.32854"
         sodipodi:rx="0.75180465"
         sodipodi:ry="0.74546689"
         sodipodi:start="0"
         sodipodi:end="6.2705142"
         sodipodi:arc-type="slice"
         d="m 71.965931,103.32854 a 0.75180465,0.74546689 0 0 1 -0.749423,0.74546 0.75180465,0.74546689 0 0 1 -0.754171,-0.74074 0.75180465,0.74546689 0 0 1 0.744645,-0.75016 0.75180465,0.74546689 0 0 1 0.758889,0.73599 l -0.751744,0.009 z" />
      <path
         style="fill:#ffffff;fill-opacity:1;stroke:#ffffff;stroke-width:0.181;stroke-miterlimit:4;stroke-dasharray:none;stroke-opacity:1"
         id="path3419-8-8-3-0"
         sodipodi:type="arc"
         sodipodi:cx="66.379387"
         sodipodi:cy="110.68474"
         sodipodi:rx="0.43029347"
         sodipodi:ry="0.42666605"
         sodipodi:start="0"
         sodipodi:end="6.2705142"
         sodipodi:arc-type="slice"
         d="m 66.80968,110.68474 a 0.43029347,0.42666605 0 0 1 -0.42893,0.42666 0.43029347,0.42666605 0 0 1 -0.431648,-0.42396 0.43029347,0.42666605 0 0 1 0.426196,-0.42935 0.43029347,0.42666605 0 0 1 0.434348,0.42124 l -0.430259,0.005 z" />
      <path
         style="fill:#ffffff;fill-opacity:1;stroke:#ffffff;stroke-width:0.1;stroke-miterlimit:4;stroke-dasharray:none;stroke-opacity:1"
         id="path3419-8-8-3-0-2"
         sodipodi:type="arc"
         sodipodi:cx="71.031342"
         sodipodi:cy="109.82219"
         sodipodi:rx="0.80503112"
         sodipodi:ry="0.7982446"
         sodipodi:start="0"
         sodipodi:end="6.2705142"
         sodipodi:arc-type="slice"
         d="m 71.836373,109.82219 a 0.80503112,0.7982446 0 0 1 -0.802481,0.79824 0.80503112,0.7982446 0 0 1 -0.807565,-0.79318 0.80503112,0.7982446 0 0 1 0.797364,-0.80327 0.80503112,0.7982446 0 0 1 0.812617,0.78809 l -0.804966,0.0101 z" />
      <path
         style="fill:#ffffff;fill-opacity:1;stroke:#ffffff;stroke-width:0.281;stroke-miterlimit:4;stroke-dasharray:none;stroke-opacity:1"
         id="path3419-8-8-3-0-8"
         sodipodi:type="arc"
         sodipodi:cx="66.760452"
         sodipodi:cy="113.83995"
         sodipodi:rx="0.72078437"
         sodipodi:ry="0.71470815"
         sodipodi:start="0"
         sodipodi:end="6.2705142"
         sodipodi:arc-type="slice"
         d="m 67.481237,113.83995 a 0.72078437,0.71470815 0 0 1 -0.718501,0.71471 0.72078437,0.71470815 0 0 1 -0.723054,-0.71018 0.72078437,0.71470815 0 0 1 0.713921,-0.71921 0.72078437,0.71470815 0 0 1 0.727576,0.70562 l -0.720727,0.009 z" />
      <path
         style="fill:#ffffff;fill-opacity:1;stroke:#ffffff;stroke-width:0.1;stroke-miterlimit:4;stroke-dasharray:none;stroke-opacity:1"
         id="path3419-2"
         sodipodi:type="arc"
         sodipodi:cx="63.699833"
         sodipodi:cy="100.79571"
         sodipodi:rx="0.58993769"
         sodipodi:ry="0.58496445"
         sodipodi:start="0"
         sodipodi:end="6.2705142"
         sodipodi:arc-type="slice"
         d="m 64.289771,100.79571 a 0.58993769,0.58496445 0 0 1 -0.588069,0.58496 0.58993769,0.58496445 0 0 1 -0.591795,-0.58126 0.58993769,0.58496445 0 0 1 0.58432,-0.58864 0.58993769,0.58496445 0 0 1 0.595496,0.57753 l -0.58989,0.007 z" />
      <g
         id="g13024">
        <path
           id="path4712"
           style="fill:none;stroke:#ffffff;stroke-width:3.11811;stroke-linecap:butt;stroke-linejoin:miter;stroke-miterlimit:4;stroke-dasharray:none;stroke-opacity:1"
           transform="matrix(0.26458333,0,0,0.26458333,-0.2842895,-0.04773348)"
           d="m 294.50195,349.16211 c -0.62893,0.005 -1.25801,0.0579 -1.8789,0.16016 -2.54633,0.41929 -4.94553,1.66635 -6.76758,3.49218 -0.0101,0.0381 -0.0211,0.0761 -0.0254,0.11524 -0.028,0.25818 -0.2077,0.33096 -0.32422,0.25 0,0 -0.002,0 -0.002,0 -0.0857,0.0934 -0.1712,0.1871 -0.25391,0.2832 -0.32896,0.3822 -0.63048,0.78685 -0.9082,1.20703 0.0949,0.0359 0.10267,0.0377 0.27734,0.11133 0.0428,0.0179 0.0867,0.0336 0.12695,0.0566 0.2589,0.1477 0.14325,0.0979 0.33789,0.24023 0.051,0.0373 0.10579,0.0703 0.15821,0.10547 0.0359,0.0218 0.0684,0.049 0.10742,0.0645 0.0625,0.0248 0.12809,0.0384 0.19336,0.0547 0.29414,0.0739 0.60115,0.0989 0.90234,0.125 0.21533,-0.003 0.42154,0.068 0.6211,0.14063 0.0647,0.0236 0.13827,0.0652 0.20898,0.0762 0.0935,0.003 0.15749,0.0672 0.2168,0.12891 0,0 0.002,0 0.002,0 0.008,0.008 0.0156,0.0174 0.0234,0.0254 0.007,0.007 -0.0101,-0.0201 -0.0195,-0.0234 0.006,0.002 0.013,0.002 0.0195,0.004 0.11439,0.0853 0.26177,0.12469 0.39844,0.16211 0.0202,0.004 0.0401,0.01 0.0605,0.0137 0.40901,0.0831 0.32005,0.5004 -0.0879,0.41211 -0.0294,-0.006 -0.0584,-0.0131 -0.0879,-0.0195 -0.17492,-0.0504 -0.34192,-0.10836 -0.49609,-0.20508 0.0429,0.006 0.16156,0.0309 0.12304,0.0156 -0.22749,-0.0905 -0.10118,0.0342 -0.23437,-0.0879 -0.003,-0.003 0.005,-0.008 0.0156,-0.0137 -0.0106,-9e-4 -0.0208,-2.3e-4 -0.0312,-0.002 -0.25616,-0.0698 -0.49578,-0.2161 -0.76953,-0.20703 -0.42962,-0.0376 -0.87493,-0.0692 -1.27734,-0.23828 -0.0449,-0.0189 -0.0835,-0.0508 -0.125,-0.0762 -0.0625,-0.0426 -0.12646,-0.0843 -0.1875,-0.1289 -0.11993,-0.0877 -0.0932,-0.0956 -0.23828,-0.17969 -0.0387,-0.0224 -0.0819,-0.0354 -0.12305,-0.0527 -0.18676,-0.0788 -0.17625,-0.0725 -0.34765,-0.14063 -1.5198,2.48471 -2.15631,5.51039 -1.7129,8.39258 0.54186,3.52205 2.68784,6.76538 5.7168,8.64258 3.10301,1.92309 7.07717,2.37306 10.53125,1.1914 3.45408,-1.18166 6.3189,-3.9718 7.59375,-7.39258 0.0421,-0.11295 0.0805,-0.22765 0.11914,-0.34179 -0.0111,-0.0267 -0.022,-0.0534 -0.0332,-0.0801 -0.007,-0.0147 -0.0118,-0.0284 -0.0176,-0.041 -0.0122,0.005 -0.03,0.0118 -0.0391,0.0156 0.01,-0.004 0.0215,-0.0126 0.0371,-0.0195 -0.0802,-0.17533 -0.0512,-0.15806 0.15429,-0.18555 0.0993,-0.32174 0.18533,-0.64778 0.25782,-0.97656 -0.0278,-0.0254 -0.0417,-0.0372 -0.0762,-0.0684 -0.1416,-0.14231 -0.29043,-0.27943 -0.42578,-0.42774 -0.0806,-0.0884 -0.15141,-0.18509 -0.22265,-0.28125 -0.10356,-0.13971 -0.20565,-0.28015 -0.30078,-0.42578 -0.0548,-0.0839 -0.0992,-0.17441 -0.14844,-0.26172 -0.22307,-0.39516 -0.17607,-0.31357 -0.37109,-0.64843 -0.0664,-0.12625 -0.13747,-0.25033 -0.19922,-0.37891 -0.0334,-0.0696 -0.0584,-0.14277 -0.0859,-0.21484 -0.0371,-0.0967 -0.0688,-0.19548 -0.10352,-0.29297 -0.16907,-0.0956 -0.33767,-0.19167 -0.5,-0.29883 0.003,0.002 0.007,0.003 0.01,0.002 0.0883,-0.0431 0.3573,-0.11561 0.26172,-0.13867 -0.11263,-0.0271 -0.21774,0.0822 -0.32617,0.12305 -0.0281,-0.0241 -0.0587,-0.0451 -0.084,-0.0723 -0.0241,-0.0259 -0.0425,-0.0568 -0.0625,-0.0859 -0.15472,-0.22354 -0.28783,-0.46508 -0.45508,-0.67968 -0.0302,-0.0388 -0.0686,-0.0707 -0.10351,-0.10547 h -0.002 c -0.20166,-0.20258 -0.12489,-0.40796 0.0391,-0.41992 0.0746,-0.005 0.16753,0.0289 0.25976,0.12109 0.0351,0.0351 0.0749,0.0664 0.10547,0.10547 0.18902,0.23995 0.22169,0.31553 0.37695,0.55273 0.029,0.0443 0.10655,0.15995 0.15039,0.22266 h 0.002 c 0.007,-8.1e-4 0.0132,-0.003 0.0195,-0.004 0.0279,-0.004 0.0465,0.0337 0.0703,0.0488 10e-4,7.8e-4 0.0206,0.0127 0.0254,0.0156 -0.0357,-0.10818 -0.0714,-0.21613 -0.10742,-0.32422 -0.0783,-0.23512 0.0309,-0.37895 0.16016,-0.37305 0.0884,0.004 0.18457,0.0794 0.23828,0.24024 0.042,0.12569 0.0832,0.25125 0.125,0.37695 -0.0198,-0.0757 -0.0384,-0.15168 -0.0606,-0.22656 -0.0437,-0.14759 -0.0863,-0.2947 -0.13867,-0.43946 -0.028,-0.0774 -0.068,-0.15237 -0.10352,-0.22656 -0.16165,-0.3369 -0.12307,-0.25979 -0.28711,-0.5332 -0.1342,-0.22368 -0.0418,-0.39276 0.0977,-0.40039 0.0837,-0.005 0.18314,0.0494 0.26367,0.18359 0.16815,0.28026 0.13272,0.20651 0.30469,0.5625 0.0381,0.0788 0.0776,0.15608 0.10742,0.23828 0.0586,0.1602 0.10708,0.32497 0.15625,0.48828 0.0355,0.11789 0.0584,0.2388 0.0977,0.35547 0.0737,0.21885 0.15961,0.43395 0.24023,0.65039 h 0.002 c 0.19997,0.0805 0.40188,0.1563 0.5996,0.24024 0.023,0.01 0.0527,0.0154 0.082,0.0215 0.0101,-0.0426 0.0142,-0.049 0.008,0.002 0.024,0.005 0.0472,0.011 0.0664,0.0195 -0.005,-0.0611 -0.009,-0.12242 -0.0137,-0.1836 0.002,-0.0438 -10e-4,-0.0873 0.004,-0.13086 0.0505,-0.49343 0.0176,-0.0601 0.0684,-0.4707 0.0387,-0.31338 0.0565,-0.62841 0.0762,-0.94336 0.005,-0.0813 0.007,-0.16296 0.0137,-0.24414 7e-4,-0.0157 0.003,-0.0312 0.004,-0.0469 -0.0247,-0.1908 -0.0466,-0.38225 -0.0566,-0.57617 -0.006,-0.11225 0,-0.22545 0,-0.33789 v -0.16797 c 0,-0.0726 0.014,-0.13223 0.0351,-0.17968 v -0.002 c -0.073,-0.26409 -0.15267,-0.52675 -0.24414,-0.78515 -0.0801,-0.22633 -0.17021,-0.44889 -0.26367,-0.66993 -0.0751,-0.087 -0.15012,-0.17432 -0.22461,-0.26171 -0.0988,-0.11592 -0.20306,-0.2277 -0.29687,-0.34766 -0.13608,-0.17401 -0.26136,-0.35553 -0.39258,-0.5332 -0.30479,-0.4467 -0.25346,-0.34132 -0.53125,-0.9043 -0.0594,-0.12034 -0.11716,-0.2434 -0.16406,-0.36914 -0.0526,-0.1409 -0.0952,-0.28459 -0.13477,-0.42969 -0.009,-0.0314 -0.0123,-0.0694 -0.0195,-0.10351 -0.93114,-1.15836 -2.06598,-2.15396 -3.3457,-2.91016 -0.70688,-0.4177 -1.45651,-0.75941 -2.23243,-1.02734 -0.0177,-0.004 -0.0988,-0.0213 -0.0996,-0.0215 -0.25158,-0.0522 -0.33866,-0.0602 -0.57227,-0.14258 -0.0392,-0.0138 -0.0735,-0.0406 -0.11328,-0.0527 -0.006,-0.002 -0.006,0.0138 -0.002,0.0176 0.008,0.006 0.0395,0.005 0.0293,0.006 -0.0746,0.005 -0.14989,0.005 -0.22461,0.008 -0.15103,-0.0129 -0.13785,-0.0132 -0.29297,-0.0215 -0.0299,-0.002 -0.0619,0.007 -0.0898,-0.004 -0.0709,-0.0274 -0.14248,-0.0591 -0.20117,-0.10742 -0.0704,-0.10377 -0.0766,-0.11662 -0.10156,-0.13477 -0.8333,-0.16457 -1.68425,-0.24516 -2.53321,-0.23828 z m 9.96289,11.41601 c 0.006,0.009 0.0123,0.0171 0.0156,0.0215 -0.002,-0.004 -0.004,-0.01 -0.0117,-0.0215 -0.001,3.3e-4 -0.003,-3.1e-4 -0.004,0 z m 2.39844,0.41407 c -0.0108,0.0643 -0.0245,0.12826 -0.0293,0.19336 -0.003,0.0263 -0.004,0.0536 -0.006,0.0801 0.004,0.064 0.003,0.12784 0.0117,0.19141 0.0239,0.1791 0.0359,0.23965 0.041,0.24805 0.007,-0.0387 -0.017,-0.35709 0.0586,0.39062 0.0106,0.1056 0.0144,0.21059 0.0195,0.31641 0.006,-0.001 0.0117,-0.005 0.0176,-0.006 0.018,-0.26013 0.024,-0.52049 0.0254,-0.78125 -0.0105,-0.0406 -0.0112,-0.0456 -0.0273,-0.10742 -0.0296,-0.13275 -0.0641,-0.26487 -0.0898,-0.39844 -0.0119,-0.0618 -0.0163,-0.0943 -0.0215,-0.12695 z m -1.5293,0.51953 c 0.01,0.0253 0.0175,0.0517 0.0293,0.0762 0.007,0.0138 0.0145,0.0273 0.0215,0.041 -0.015,-0.0375 -0.0344,-0.0849 -0.0469,-0.11524 -10e-4,-5.7e-4 -0.003,-9e-4 -0.004,-0.002 z m 1.13086,0.12305 c -10e-4,0.025 -3.3e-4,0.10697 -0.0176,0.0215 -0.0331,0.0922 -0.099,0.17969 -0.13477,0.27148 -0.0467,0.1197 -0.0537,0.0871 -0.0449,-0.004 -0.0419,0.0103 -0.10631,-0.0758 -0.1582,-0.0977 -0.0933,-0.0395 -0.16318,-0.0689 -0.22461,-0.0937 0.068,0.15635 0.14644,0.31697 0.3789,0.77149 0.0929,0.18158 0.18422,0.3661 0.28906,0.54101 7.5e-4,10e-4 8.4e-4,0.003 0.002,0.004 6e-5,-0.17122 0.004,-0.21707 -0.0156,-0.59375 -0.006,-0.1112 -0.0101,-0.22325 -0.0215,-0.33399 -0.0355,-0.34873 -0.0487,-0.46677 -0.0527,-0.48632 z m -0.0488,3.71875 c -0.003,10e-4 -0.005,0.003 -0.008,0.004 0.002,-9.7e-4 0.005,-5.3e-4 0.008,-0.002 z"
           clip-path="url(#clipPath12288)" />
      </g>
    </g>
  </g>
</svg>
